<svg xmlns="http://www.w3.org/2000/svg" xmlns:xlink="http://www.w3.org/1999/xlink" width="500" zoomAndPan="magnify" viewBox="0 0 375 374.999991" height="500" preserveAspectRatio="xMidYMid meet" version="1.0"><defs><g/><clipPath id="109a49039e"><path d="M 156.183594 258.644531 L 218.773438 258.644531 L 218.773438 288.785156 L 156.183594 288.785156 Z M 156.183594 258.644531 " clip-rule="nonzero"/></clipPath><clipPath id="79865c6e5c"><path d="M 171.246094 258.644531 L 203.746094 258.644531 C 212.0625 258.644531 218.804688 265.386719 218.804688 273.707031 C 218.804688 282.023438 212.0625 288.765625 203.746094 288.765625 L 171.246094 288.765625 C 162.925781 288.765625 156.183594 282.023438 156.183594 273.707031 C 156.183594 265.386719 162.925781 258.644531 171.246094 258.644531 Z M 171.246094 258.644531 " clip-rule="nonzero"/></clipPath></defs><g fill="#e4e2dd" fill-opacity="1"><g transform="translate(0.317967, 215.903999)"><g><path d="M 52.796875 -4.328125 C 52.222656 -4.515625 51.570312 -5.519531 50.84375 -7.34375 C 50.125 -9.175781 49.351562 -11.4375 48.53125 -14.125 C 47.71875 -16.820312 46.953125 -19.613281 46.234375 -22.5 C 45.515625 -25.382812 44.863281 -27.984375 44.28125 -30.296875 C 43.707031 -32.609375 43.328125 -34.289062 43.140625 -35.34375 L 31.875 -35.203125 C 30.820312 -30.867188 29.910156 -26.5625 29.140625 -22.28125 C 28.367188 -18.007812 27.789062 -13.660156 27.40625 -9.234375 C 27.40625 -8.367188 26.992188 -7.9375 26.171875 -7.9375 C 25.359375 -7.9375 25.003906 -8.367188 25.109375 -9.234375 C 25.484375 -13.554688 26.03125 -17.90625 26.75 -22.28125 C 27.476562 -26.664062 28.515625 -30.972656 29.859375 -35.203125 L 28.5625 -35.203125 C 28.082031 -33.472656 27.601562 -31.378906 27.125 -28.921875 C 26.644531 -26.472656 26.1875 -24.066406 25.75 -21.703125 C 25.320312 -19.347656 24.960938 -17.378906 24.671875 -15.796875 C 24.378906 -14.210938 24.234375 -13.421875 24.234375 -13.421875 L 23.375 -6.921875 C 23.082031 -3.648438 21.972656 -1.296875 20.046875 0.140625 C 18.128906 1.585938 16.015625 2.164062 13.703125 1.875 C 11.398438 1.582031 9.453125 0.476562 7.859375 -1.4375 C 6.273438 -3.363281 5.722656 -6.007812 6.203125 -9.375 C 6.773438 -13.601562 7.445312 -17.832031 8.21875 -22.0625 C 8.988281 -26.300781 9.90625 -30.488281 10.96875 -34.625 C 10.289062 -34.53125 9.613281 -34.457031 8.9375 -34.40625 C 8.269531 -34.351562 7.644531 -34.328125 7.0625 -34.328125 C 7.257812 -34.816406 7.3125 -35.253906 7.21875 -35.640625 C 4.90625 -36.210938 3.21875 -37.457031 2.15625 -39.375 C 1.101562 -41.300781 0.816406 -43.441406 1.296875 -45.796875 C 1.773438 -48.160156 3.117188 -50.328125 5.328125 -52.296875 C 7.546875 -54.265625 10.816406 -55.585938 15.140625 -56.265625 C 16.203125 -61.078125 17.359375 -65.8125 18.609375 -70.46875 C 19.859375 -75.132812 21.398438 -79.679688 23.234375 -84.109375 C 24.097656 -86.035156 25.054688 -88.125 26.109375 -90.375 C 27.171875 -92.632812 28.492188 -94.609375 30.078125 -96.296875 C 31.660156 -97.984375 33.65625 -98.828125 36.0625 -98.828125 C 37.3125 -98.921875 38.5625 -98.582031 39.8125 -97.8125 C 41.0625 -97.039062 41.976562 -96.078125 42.5625 -94.921875 C 44.675781 -94.828125 46.429688 -94.082031 47.828125 -92.6875 C 49.222656 -91.289062 50.015625 -89.441406 50.203125 -87.140625 C 50.398438 -84.253906 50.640625 -81.34375 50.921875 -78.40625 C 51.210938 -75.476562 51.503906 -72.617188 51.796875 -69.828125 C 51.890625 -69.734375 51.984375 -69.6875 52.078125 -69.6875 C 52.171875 -72.1875 52.289062 -74.660156 52.4375 -77.109375 C 52.582031 -79.554688 52.800781 -81.984375 53.09375 -84.390625 C 53.09375 -84.773438 53.160156 -83.910156 53.296875 -81.796875 C 53.441406 -79.679688 53.609375 -76.960938 53.796875 -73.640625 C 53.992188 -70.328125 54.1875 -67.007812 54.375 -63.6875 C 54.570312 -60.375 54.816406 -57.609375 55.109375 -55.390625 C 57.898438 -55.109375 60.0625 -54.171875 61.59375 -52.578125 C 63.132812 -50.992188 64.097656 -49.164062 64.484375 -47.09375 C 64.867188 -45.03125 64.675781 -42.988281 63.90625 -40.96875 C 63.132812 -38.945312 61.738281 -37.3125 59.71875 -36.0625 C 60.6875 -31.832031 61.695312 -27.046875 62.75 -21.703125 C 63.8125 -16.367188 64.628906 -11.539062 65.203125 -7.21875 C 65.585938 -3.945312 65.320312 -1.472656 64.40625 0.203125 C 63.5 1.890625 62.300781 2.828125 60.8125 3.015625 C 59.320312 3.210938 57.828125 2.6875 56.328125 1.4375 C 54.835938 0.1875 53.660156 -1.734375 52.796875 -4.328125 Z M 31.453125 -53.953125 C 32.503906 -54.148438 33.875 -54.269531 35.5625 -54.3125 C 37.25 -54.363281 38.570312 -54.4375 39.53125 -54.53125 C 39.332031 -55.78125 39.113281 -57.554688 38.875 -59.859375 C 38.632812 -62.171875 38.347656 -64.648438 38.015625 -67.296875 C 37.679688 -69.941406 37.269531 -72.367188 36.78125 -74.578125 C 35.632812 -70.546875 34.625 -66.941406 33.75 -63.765625 C 32.882812 -60.585938 32.117188 -57.316406 31.453125 -53.953125 Z M 31.453125 -53.953125 "/></g></g></g><g fill="#e4e2dd" fill-opacity="1"><g transform="translate(54.992958, 215.903999)"><g><path d="M 62.609375 0.4375 C 61.742188 1.007812 60.78125 1.007812 59.71875 0.4375 C 57.800781 -0.425781 56.503906 -1.84375 55.828125 -3.8125 C 55.160156 -5.789062 54.632812 -7.691406 54.25 -9.515625 L 53.375 -14.421875 L 28.28125 -59.296875 C 27.894531 -59.773438 27.507812 -60.300781 27.125 -60.875 C 26.738281 -61.457031 26.351562 -61.988281 25.96875 -62.46875 C 26.0625 -57.5625 26.082031 -52.65625 26.03125 -47.75 C 25.988281 -42.84375 25.96875 -37.9375 25.96875 -33.03125 C 26.15625 -30.144531 26.273438 -27.257812 26.328125 -24.375 C 26.378906 -21.488281 26.453125 -18.601562 26.546875 -15.71875 C 26.640625 -14.28125 26.734375 -12.523438 26.828125 -10.453125 C 26.929688 -8.390625 26.71875 -6.539062 26.1875 -4.90625 C 25.65625 -3.269531 24.378906 -2.304688 22.359375 -2.015625 C 21.492188 -0.578125 20.316406 0.40625 18.828125 0.9375 C 17.335938 1.46875 15.773438 1.492188 14.140625 1.015625 C 12.597656 0.628906 11.25 -0.285156 10.09375 -1.734375 C 9.707031 -7.785156 9.394531 -13.84375 9.15625 -19.90625 C 8.914062 -25.96875 8.703125 -32.03125 8.515625 -38.09375 C 8.316406 -42.988281 8.171875 -47.910156 8.078125 -52.859375 C 7.984375 -57.816406 7.835938 -62.75 7.640625 -67.65625 C 7.546875 -70.832031 7.472656 -74.003906 7.421875 -77.171875 C 7.378906 -80.347656 7.453125 -83.476562 7.640625 -86.5625 C 8.609375 -87.332031 9.523438 -87.765625 10.390625 -87.859375 C 10.390625 -89.015625 10.773438 -90.117188 11.546875 -91.171875 C 12.691406 -92.617188 13.984375 -93.316406 15.421875 -93.265625 C 16.867188 -93.222656 18.363281 -92.695312 19.90625 -91.6875 C 21.445312 -90.675781 22.84375 -89.519531 24.09375 -88.21875 C 25.34375 -86.914062 26.304688 -85.832031 26.984375 -84.96875 C 29.484375 -81.695312 31.765625 -78.351562 33.828125 -74.9375 C 35.898438 -71.53125 37.894531 -68.046875 39.8125 -64.484375 C 41.445312 -61.691406 43.035156 -58.851562 44.578125 -55.96875 C 46.117188 -53.082031 47.609375 -50.148438 49.046875 -47.171875 C 49.242188 -46.785156 49.34375 -46.304688 49.34375 -45.734375 L 51.640625 -41.265625 C 51.253906 -44.910156 50.722656 -48.609375 50.046875 -52.359375 C 49.378906 -56.117188 48.710938 -59.828125 48.046875 -63.484375 C 47.554688 -66.078125 47.070312 -68.671875 46.59375 -71.265625 C 46.113281 -73.859375 45.488281 -76.457031 44.71875 -79.0625 C 44.332031 -80.40625 43.972656 -81.773438 43.640625 -83.171875 C 43.304688 -84.566406 43.523438 -85.984375 44.296875 -87.421875 C 44.960938 -88.578125 45.773438 -89.441406 46.734375 -90.015625 C 46.734375 -90.117188 46.757812 -90.171875 46.8125 -90.171875 C 46.863281 -90.171875 46.890625 -90.21875 46.890625 -90.3125 C 47.753906 -91.945312 49.070312 -92.765625 50.84375 -92.765625 C 52.625 -92.765625 54.140625 -92.332031 55.390625 -91.46875 C 55.679688 -91.363281 56.019531 -91.125 56.40625 -90.75 C 56.695312 -89.394531 57.035156 -88.019531 57.421875 -86.625 C 57.804688 -85.238281 58.191406 -83.867188 58.578125 -82.515625 C 59.722656 -78.378906 60.679688 -74.125 61.453125 -69.75 C 62.222656 -65.375 62.945312 -61.023438 63.625 -56.703125 C 65.0625 -47.941406 66.210938 -39.085938 67.078125 -30.140625 C 67.941406 -21.203125 68.664062 -12.3125 69.25 -3.46875 C 68.476562 -2.40625 67.515625 -1.488281 66.359375 -0.71875 C 65.203125 0.0507812 63.953125 0.4375 62.609375 0.4375 Z M 70.6875 -4.90625 C 70.5 -4.90625 70.304688 -4.757812 70.109375 -4.46875 C 69.148438 -18.226562 67.828125 -31.957031 66.140625 -45.65625 C 64.460938 -59.363281 62.132812 -72.898438 59.15625 -86.265625 C 58.957031 -86.847656 59.097656 -87.378906 59.578125 -87.859375 C 59.960938 -88.335938 60.488281 -88.550781 61.15625 -88.5 C 61.832031 -88.457031 62.222656 -88.050781 62.328125 -87.28125 C 64.921875 -74.78125 66.960938 -62.15625 68.453125 -49.40625 C 69.941406 -36.664062 70.640625 -23.898438 70.546875 -11.109375 C 70.640625 -10.628906 70.707031 -9.738281 70.75 -8.4375 C 70.800781 -7.132812 70.78125 -5.957031 70.6875 -4.90625 Z M 7.5 -15.4375 C 7.113281 -20.53125 6.820312 -25.84375 6.625 -31.375 C 6.4375 -36.90625 6.25 -42.269531 6.0625 -47.46875 C 5.863281 -52.5625 5.71875 -57.703125 5.625 -62.890625 C 5.53125 -68.085938 5.4375 -73.285156 5.34375 -78.484375 C 5.238281 -79.734375 5.28125 -81.003906 5.46875 -82.296875 C 5.664062 -83.597656 6.003906 -84.828125 6.484375 -85.984375 C 6.390625 -83.671875 6.363281 -81.359375 6.40625 -79.046875 C 6.457031 -76.742188 6.535156 -74.441406 6.640625 -72.140625 C 6.734375 -67.128906 6.851562 -62.125 7 -57.125 C 7.144531 -52.125 7.265625 -47.078125 7.359375 -41.984375 L 8.65625 -9.515625 C 8.65625 -9.515625 8.535156 -9.726562 8.296875 -10.15625 C 8.054688 -10.59375 7.789062 -12.351562 7.5 -15.4375 Z M 23.65625 -22.5 L 23.234375 -22.078125 C 23.234375 -22.078125 23.207031 -22.078125 23.15625 -22.078125 C 23.101562 -22.078125 23.03125 -22.023438 22.9375 -21.921875 L 22.796875 -13.265625 C 22.796875 -12.117188 23.007812 -10.75 23.4375 -9.15625 C 23.875 -7.570312 23.851562 -5.867188 23.375 -4.046875 C 24.332031 -5.671875 24.71875 -7.300781 24.53125 -8.9375 C 24.425781 -10.289062 24.347656 -11.6875 24.296875 -13.125 C 24.253906 -14.570312 24.140625 -16.015625 23.953125 -17.453125 C 23.953125 -18.316406 23.925781 -19.15625 23.875 -19.96875 C 23.820312 -20.789062 23.75 -21.632812 23.65625 -22.5 Z M 23.65625 -22.5 "/></g></g></g><g fill="#e4e2dd" fill-opacity="1"><g transform="translate(115.438554, 215.903999)"><g><path d="M 54.53125 -61.890625 C 55.300781 -57.460938 55.78125 -52.988281 55.96875 -48.46875 C 56.164062 -43.945312 56.023438 -39.425781 55.546875 -34.90625 C 55.160156 -30.96875 54.535156 -26.90625 53.671875 -22.71875 C 52.804688 -18.539062 51.171875 -14.765625 48.765625 -11.390625 C 47.992188 -10.335938 47.175781 -9.304688 46.3125 -8.296875 C 45.445312 -7.285156 44.484375 -6.347656 43.421875 -5.484375 C 42.078125 -4.140625 40.5625 -3.007812 38.875 -2.09375 C 37.195312 -1.175781 35.347656 -0.570312 33.328125 -0.28125 C 31.785156 -0.1875 30.195312 -0.1875 28.5625 -0.28125 C 26.15625 0.09375 23.703125 -0.0976562 21.203125 -0.859375 C 18.703125 -1.628906 16.492188 -2.785156 14.578125 -4.328125 C 11.203125 -7.210938 8.695312 -10.695312 7.0625 -14.78125 C 5.425781 -18.875 4.226562 -23.035156 3.46875 -27.265625 C 2.019531 -36.492188 2.015625 -45.722656 3.453125 -54.953125 C 4.898438 -64.191406 8.03125 -72.851562 12.84375 -80.9375 C 12.84375 -80.9375 12.9375 -81.03125 13.125 -81.21875 C 14.570312 -85.070312 16.5 -88.535156 18.90625 -91.609375 C 19 -91.796875 19.09375 -91.863281 19.1875 -91.8125 C 19.28125 -91.769531 19.28125 -91.65625 19.1875 -91.46875 C 18.800781 -90.789062 18.390625 -90.09375 17.953125 -89.375 C 17.523438 -88.65625 17.164062 -87.910156 16.875 -87.140625 C 16.488281 -86.367188 16.148438 -85.570312 15.859375 -84.75 C 15.578125 -83.9375 15.289062 -83.144531 15 -82.375 C 15.195312 -82.46875 15.414062 -82.488281 15.65625 -82.4375 C 15.894531 -82.394531 16.0625 -82.375 16.15625 -82.375 C 17.40625 -85.070312 18.894531 -87.425781 20.625 -89.4375 C 22.363281 -91.457031 24.382812 -92.710938 26.6875 -93.203125 C 27.644531 -93.578125 28.582031 -93.882812 29.5 -94.125 C 30.414062 -94.375 31.351562 -94.445312 32.3125 -94.34375 C 33.375 -94.539062 34.457031 -94.613281 35.5625 -94.5625 C 36.664062 -94.519531 37.648438 -94.253906 38.515625 -93.765625 C 39.484375 -93.191406 40.328125 -92.375 41.046875 -91.3125 C 41.765625 -90.257812 42.363281 -89.253906 42.84375 -88.296875 C 43.425781 -88.484375 44.03125 -88.503906 44.65625 -88.359375 C 45.28125 -88.210938 45.785156 -87.804688 46.171875 -87.140625 C 47.222656 -85.210938 48.226562 -83.238281 49.1875 -81.21875 C 50.15625 -79.195312 50.972656 -77.128906 51.640625 -75.015625 C 52.316406 -72.898438 52.867188 -70.734375 53.296875 -68.515625 C 53.734375 -66.304688 54.144531 -64.097656 54.53125 -61.890625 Z M 36.5 -19.90625 C 37.75 -23.269531 38.613281 -26.734375 39.09375 -30.296875 C 39.570312 -33.859375 39.8125 -37.414062 39.8125 -40.96875 C 39.53125 -44.625 39.242188 -48.253906 38.953125 -51.859375 C 38.660156 -55.472656 38.226562 -59.054688 37.65625 -62.609375 C 37.457031 -63.671875 37.257812 -64.753906 37.0625 -65.859375 C 36.875 -66.960938 36.6875 -67.992188 36.5 -68.953125 C 36.113281 -70.304688 35.679688 -71.609375 35.203125 -72.859375 C 34.722656 -74.109375 34.242188 -75.359375 33.765625 -76.609375 C 33.566406 -77.085938 33.347656 -77.613281 33.109375 -78.1875 C 32.867188 -78.769531 32.601562 -79.300781 32.3125 -79.78125 C 32.125 -79.96875 31.929688 -80.0625 31.734375 -80.0625 L 31.015625 -80.0625 C 30.628906 -79.289062 30.269531 -78.472656 29.9375 -77.609375 C 29.601562 -76.742188 29.335938 -75.925781 29.140625 -75.15625 C 28.367188 -72.5625 27.671875 -69.941406 27.046875 -67.296875 C 26.421875 -64.648438 25.914062 -61.9375 25.53125 -59.15625 C 24.863281 -53.863281 24.578125 -48.472656 24.671875 -42.984375 C 24.765625 -37.503906 25.242188 -32.070312 26.109375 -26.6875 C 26.398438 -25.050781 26.207031 -23.609375 25.53125 -22.359375 C 23.507812 -31.785156 22.710938 -41.523438 23.140625 -51.578125 C 23.578125 -61.628906 25.863281 -70.984375 30 -79.640625 C 29.625 -79.347656 29.265625 -78.9375 28.921875 -78.40625 C 28.585938 -77.875 28.273438 -77.367188 27.984375 -76.890625 C 26.640625 -74.203125 25.484375 -71.414062 24.515625 -68.53125 C 23.554688 -65.644531 22.789062 -62.707031 22.21875 -59.71875 C 22.019531 -59.34375 21.921875 -59.15625 21.921875 -59.15625 C 21.640625 -57.519531 21.425781 -55.859375 21.28125 -54.171875 C 21.132812 -52.484375 20.96875 -50.820312 20.78125 -49.1875 C 20.582031 -44.289062 20.75 -39.410156 21.28125 -34.546875 C 21.8125 -29.691406 22.601562 -24.910156 23.65625 -20.203125 C 23.175781 -19.816406 22.648438 -19.570312 22.078125 -19.46875 C 20.335938 -19.09375 18.648438 -19.382812 17.015625 -20.34375 C 17.785156 -18.800781 18.84375 -17.210938 20.1875 -15.578125 C 21.539062 -13.941406 23.109375 -12.710938 24.890625 -11.890625 C 26.671875 -11.078125 28.566406 -10.960938 30.578125 -11.546875 C 32.210938 -12.117188 33.515625 -13.269531 34.484375 -15 C 34.960938 -15.769531 35.367188 -16.5625 35.703125 -17.375 C 36.035156 -18.195312 36.300781 -19.039062 36.5 -19.90625 Z M 36.5 -19.90625 "/></g></g></g><g fill="#e4e2dd" fill-opacity="1"><g transform="translate(162.900309, 215.903999)"><g><path d="M 86.84375 -14.71875 C 87.039062 -12.695312 87.019531 -10.675781 86.78125 -8.65625 C 86.539062 -6.632812 85.890625 -4.710938 84.828125 -2.890625 C 83.765625 -1.054688 82.101562 0.265625 79.84375 1.078125 C 77.582031 1.898438 75.539062 1.394531 73.71875 -0.4375 C 72.082031 -0.820312 70.6875 -1.660156 69.53125 -2.953125 C 68.382812 -4.253906 67.8125 -5.769531 67.8125 -7.5 C 67.519531 -19.8125 65.832031 -32.078125 62.75 -44.296875 C 62.082031 -47.367188 61.410156 -50.421875 60.734375 -53.453125 C 60.054688 -56.484375 59.382812 -59.488281 58.71875 -62.46875 C 56.988281 -57.46875 55.304688 -52.101562 53.671875 -46.375 C 52.035156 -40.65625 50.6875 -35.773438 49.625 -31.734375 C 48.664062 -27.796875 47.726562 -23.757812 46.8125 -19.625 C 45.894531 -15.488281 45.148438 -11.878906 44.578125 -8.796875 C 44.484375 -8.515625 44.363281 -8.394531 44.21875 -8.4375 C 44.070312 -8.488281 44 -8.5625 44 -8.65625 C 43.90625 -7.976562 43.757812 -7.300781 43.5625 -6.625 C 43.375 -5.957031 43.179688 -5.238281 42.984375 -4.46875 C 42.609375 -3.507812 42.15625 -2.644531 41.625 -1.875 C 41.09375 -1.101562 40.25 -0.570312 39.09375 -0.28125 C 38.226562 -0.09375 37.601562 -0.144531 37.21875 -0.4375 C 36.351562 -0.4375 35.679688 -0.628906 35.203125 -1.015625 C 34.617188 -0.628906 34.1875 -0.769531 33.90625 -1.4375 C 33.226562 -2.5 32.71875 -3.554688 32.375 -4.609375 C 32.039062 -5.671875 31.734375 -6.78125 31.453125 -7.9375 L 25.25 -30 C 24.570312 -32.40625 23.921875 -34.8125 23.296875 -37.21875 C 22.671875 -39.625 22.070312 -42.03125 21.5 -44.4375 C 21.300781 -45.007812 21.101562 -45.582031 20.90625 -46.15625 C 20.71875 -46.738281 20.53125 -47.367188 20.34375 -48.046875 C 20.632812 -41.984375 20.898438 -35.828125 21.140625 -29.578125 C 21.378906 -23.328125 21.546875 -17.171875 21.640625 -11.109375 C 21.734375 -8.992188 21.660156 -6.804688 21.421875 -4.546875 C 21.179688 -2.285156 19.90625 -0.625 17.59375 0.4375 C 16.539062 0.914062 15.722656 0.816406 15.140625 0.140625 C 14.953125 -0.046875 14.8125 -0.238281 14.71875 -0.4375 C 12.695312 0.238281 11.015625 -0.09375 9.671875 -1.4375 C 8.421875 -2.789062 7.601562 -4.425781 7.21875 -6.34375 C 6.832031 -8.269531 6.539062 -10.097656 6.34375 -11.828125 C 5.769531 -16.054688 5.335938 -20.210938 5.046875 -24.296875 C 4.753906 -28.390625 4.5625 -32.503906 4.46875 -36.640625 C 4.1875 -45.203125 4.046875 -53.765625 4.046875 -62.328125 C 3.941406 -66.460938 3.863281 -70.644531 3.8125 -74.875 C 3.769531 -79.101562 4.132812 -83.285156 4.90625 -87.421875 C 5 -87.804688 5.285156 -88 5.765625 -88 C 6.242188 -88 6.535156 -87.804688 6.640625 -87.421875 C 7.117188 -84.535156 7.40625 -81.484375 7.5 -78.265625 C 7.59375 -75.046875 7.691406 -71.894531 7.796875 -68.8125 C 7.984375 -68.8125 8.125 -68.28125 8.21875 -67.21875 C 8.320312 -66.164062 8.421875 -65.640625 8.515625 -65.640625 L 8.515625 -68.953125 C 8.515625 -70.691406 8.488281 -72.398438 8.4375 -74.078125 C 8.394531 -75.765625 8.375 -77.472656 8.375 -79.203125 C 8.269531 -80.640625 8.242188 -82.128906 8.296875 -83.671875 C 8.347656 -85.210938 8.707031 -86.65625 9.375 -88 C 9.375 -89.632812 10.191406 -90.929688 11.828125 -91.890625 C 14.140625 -93.335938 16.546875 -93.675781 19.046875 -92.90625 C 21.929688 -92.332031 23.898438 -90.648438 24.953125 -87.859375 C 25.816406 -86.796875 26.347656 -85.5 26.546875 -83.96875 C 26.734375 -82.226562 26.972656 -80.46875 27.265625 -78.6875 C 27.554688 -76.914062 27.84375 -75.113281 28.125 -73.28125 C 29.375 -65.875 30.769531 -58.128906 32.3125 -50.046875 C 33.851562 -41.972656 35.441406 -34.285156 37.078125 -26.984375 C 38.035156 -31.015625 38.945312 -35.050781 39.8125 -39.09375 C 40.675781 -43.132812 41.59375 -47.175781 42.5625 -51.21875 C 43.90625 -57.46875 45.296875 -63.691406 46.734375 -69.890625 C 48.179688 -76.097656 49.335938 -82.328125 50.203125 -88.578125 C 50.398438 -89.347656 50.832031 -90.046875 51.5 -90.671875 C 52.175781 -91.296875 52.898438 -91.65625 53.671875 -91.75 C 56.078125 -92.425781 58.191406 -92.234375 60.015625 -91.171875 C 61.066406 -91.941406 62.265625 -92.328125 63.609375 -92.328125 C 64.960938 -92.328125 66.070312 -91.847656 66.9375 -90.890625 C 69.144531 -88.671875 70.921875 -86.164062 72.265625 -83.375 C 73.617188 -80.59375 74.632812 -77.710938 75.3125 -74.734375 C 76.070312 -71.460938 76.765625 -68.210938 77.390625 -64.984375 C 78.023438 -61.765625 78.628906 -58.519531 79.203125 -55.25 C 79.390625 -54 79.601562 -52.75 79.84375 -51.5 C 80.09375 -50.25 80.265625 -49 80.359375 -47.75 C 80.640625 -46.695312 80.898438 -45.640625 81.140625 -44.578125 C 81.390625 -43.515625 81.609375 -42.457031 81.796875 -41.40625 C 82.273438 -39 82.726562 -36.640625 83.15625 -34.328125 C 83.59375 -32.023438 84.054688 -29.671875 84.546875 -27.265625 C 85.023438 -25.148438 85.476562 -23.054688 85.90625 -20.984375 C 86.34375 -18.921875 86.65625 -16.832031 86.84375 -14.71875 Z M 26.984375 -53.953125 C 27.265625 -53.285156 27.5 -52.6875 27.6875 -52.15625 C 27.882812 -51.625 28.175781 -51.117188 28.5625 -50.640625 C 27.894531 -54.296875 27.125 -58.503906 26.25 -63.265625 C 25.382812 -68.023438 24.617188 -72.234375 23.953125 -75.890625 C 23.847656 -76.941406 23.703125 -78.019531 23.515625 -79.125 C 23.328125 -80.226562 23.085938 -81.359375 22.796875 -82.515625 C 22.210938 -82.128906 21.539062 -81.84375 20.78125 -81.65625 C 20.78125 -81.457031 20.726562 -81.265625 20.625 -81.078125 C 21.6875 -76.648438 22.722656 -72.269531 23.734375 -67.9375 C 24.742188 -63.613281 25.726562 -59.191406 26.6875 -54.671875 C 26.882812 -54.484375 26.984375 -54.242188 26.984375 -53.953125 Z M 48.90625 -32.03125 C 50.25 -37.507812 51.691406 -42.988281 53.234375 -48.46875 C 54.773438 -53.957031 56.457031 -59.394531 58.28125 -64.78125 C 58.1875 -65.257812 58.085938 -65.738281 57.984375 -66.21875 C 57.890625 -66.695312 57.75 -67.175781 57.5625 -67.65625 C 56.019531 -62.945312 54.578125 -58.160156 53.234375 -53.296875 C 51.890625 -48.441406 50.640625 -43.5625 49.484375 -38.65625 C 49.390625 -37.601562 49.222656 -36.523438 48.984375 -35.421875 C 48.742188 -34.316406 48.523438 -33.234375 48.328125 -32.171875 C 48.421875 -32.078125 48.566406 -32.03125 48.765625 -32.03125 Z M 48.90625 -32.03125 "/></g></g></g><g fill="#e4e2dd" fill-opacity="1"><g transform="translate(234.887073, 215.903999)"><g><path d="M 52.796875 -4.328125 C 52.222656 -4.515625 51.570312 -5.519531 50.84375 -7.34375 C 50.125 -9.175781 49.351562 -11.4375 48.53125 -14.125 C 47.71875 -16.820312 46.953125 -19.613281 46.234375 -22.5 C 45.515625 -25.382812 44.863281 -27.984375 44.28125 -30.296875 C 43.707031 -32.609375 43.328125 -34.289062 43.140625 -35.34375 L 31.875 -35.203125 C 30.820312 -30.867188 29.910156 -26.5625 29.140625 -22.28125 C 28.367188 -18.007812 27.789062 -13.660156 27.40625 -9.234375 C 27.40625 -8.367188 26.992188 -7.9375 26.171875 -7.9375 C 25.359375 -7.9375 25.003906 -8.367188 25.109375 -9.234375 C 25.484375 -13.554688 26.03125 -17.90625 26.75 -22.28125 C 27.476562 -26.664062 28.515625 -30.972656 29.859375 -35.203125 L 28.5625 -35.203125 C 28.082031 -33.472656 27.601562 -31.378906 27.125 -28.921875 C 26.644531 -26.472656 26.1875 -24.066406 25.75 -21.703125 C 25.320312 -19.347656 24.960938 -17.378906 24.671875 -15.796875 C 24.378906 -14.210938 24.234375 -13.421875 24.234375 -13.421875 L 23.375 -6.921875 C 23.082031 -3.648438 21.972656 -1.296875 20.046875 0.140625 C 18.128906 1.585938 16.015625 2.164062 13.703125 1.875 C 11.398438 1.582031 9.453125 0.476562 7.859375 -1.4375 C 6.273438 -3.363281 5.722656 -6.007812 6.203125 -9.375 C 6.773438 -13.601562 7.445312 -17.832031 8.21875 -22.0625 C 8.988281 -26.300781 9.90625 -30.488281 10.96875 -34.625 C 10.289062 -34.53125 9.613281 -34.457031 8.9375 -34.40625 C 8.269531 -34.351562 7.644531 -34.328125 7.0625 -34.328125 C 7.257812 -34.816406 7.3125 -35.253906 7.21875 -35.640625 C 4.90625 -36.210938 3.21875 -37.457031 2.15625 -39.375 C 1.101562 -41.300781 0.816406 -43.441406 1.296875 -45.796875 C 1.773438 -48.160156 3.117188 -50.328125 5.328125 -52.296875 C 7.546875 -54.265625 10.816406 -55.585938 15.140625 -56.265625 C 16.203125 -61.078125 17.359375 -65.8125 18.609375 -70.46875 C 19.859375 -75.132812 21.398438 -79.679688 23.234375 -84.109375 C 24.097656 -86.035156 25.054688 -88.125 26.109375 -90.375 C 27.171875 -92.632812 28.492188 -94.609375 30.078125 -96.296875 C 31.660156 -97.984375 33.65625 -98.828125 36.0625 -98.828125 C 37.3125 -98.921875 38.5625 -98.582031 39.8125 -97.8125 C 41.0625 -97.039062 41.976562 -96.078125 42.5625 -94.921875 C 44.675781 -94.828125 46.429688 -94.082031 47.828125 -92.6875 C 49.222656 -91.289062 50.015625 -89.441406 50.203125 -87.140625 C 50.398438 -84.253906 50.640625 -81.34375 50.921875 -78.40625 C 51.210938 -75.476562 51.503906 -72.617188 51.796875 -69.828125 C 51.890625 -69.734375 51.984375 -69.6875 52.078125 -69.6875 C 52.171875 -72.1875 52.289062 -74.660156 52.4375 -77.109375 C 52.582031 -79.554688 52.800781 -81.984375 53.09375 -84.390625 C 53.09375 -84.773438 53.160156 -83.910156 53.296875 -81.796875 C 53.441406 -79.679688 53.609375 -76.960938 53.796875 -73.640625 C 53.992188 -70.328125 54.1875 -67.007812 54.375 -63.6875 C 54.570312 -60.375 54.816406 -57.609375 55.109375 -55.390625 C 57.898438 -55.109375 60.0625 -54.171875 61.59375 -52.578125 C 63.132812 -50.992188 64.097656 -49.164062 64.484375 -47.09375 C 64.867188 -45.03125 64.675781 -42.988281 63.90625 -40.96875 C 63.132812 -38.945312 61.738281 -37.3125 59.71875 -36.0625 C 60.6875 -31.832031 61.695312 -27.046875 62.75 -21.703125 C 63.8125 -16.367188 64.628906 -11.539062 65.203125 -7.21875 C 65.585938 -3.945312 65.320312 -1.472656 64.40625 0.203125 C 63.5 1.890625 62.300781 2.828125 60.8125 3.015625 C 59.320312 3.210938 57.828125 2.6875 56.328125 1.4375 C 54.835938 0.1875 53.660156 -1.734375 52.796875 -4.328125 Z M 31.453125 -53.953125 C 32.503906 -54.148438 33.875 -54.269531 35.5625 -54.3125 C 37.25 -54.363281 38.570312 -54.4375 39.53125 -54.53125 C 39.332031 -55.78125 39.113281 -57.554688 38.875 -59.859375 C 38.632812 -62.171875 38.347656 -64.648438 38.015625 -67.296875 C 37.679688 -69.941406 37.269531 -72.367188 36.78125 -74.578125 C 35.632812 -70.546875 34.625 -66.941406 33.75 -63.765625 C 32.882812 -60.585938 32.117188 -57.316406 31.453125 -53.953125 Z M 31.453125 -53.953125 "/></g></g></g><g fill="#e4e2dd" fill-opacity="1"><g transform="translate(289.562072, 215.903999)"><g><path d="M 82.234375 -54.96875 L 81.796875 -51.9375 C 81.703125 -50.59375 81.078125 -49.414062 79.921875 -48.40625 C 78.765625 -47.394531 77.609375 -46.9375 76.453125 -47.03125 C 73.085938 -47.21875 69.695312 -47.457031 66.28125 -47.75 C 62.875 -48.039062 59.488281 -48.332031 56.125 -48.625 C 60.0625 -42.75 63.519531 -36.785156 66.5 -30.734375 C 68.425781 -26.597656 70.347656 -22.289062 72.265625 -17.8125 C 74.191406 -13.34375 74.867188 -8.753906 74.296875 -4.046875 C 74.109375 -2.503906 73.335938 -1.515625 71.984375 -1.078125 C 70.640625 -0.648438 69.34375 -0.675781 68.09375 -1.15625 C 67.414062 -1.0625 66.765625 -1.035156 66.140625 -1.078125 C 65.515625 -1.128906 64.867188 -1.300781 64.203125 -1.59375 C 64.003906 -1.59375 63.90625 -1.640625 63.90625 -1.734375 C 63.332031 -1.148438 62.707031 -1.003906 62.03125 -1.296875 C 60.78125 -4.660156 59.429688 -8.050781 57.984375 -11.46875 C 56.546875 -14.882812 55.109375 -18.226562 53.671875 -21.5 C 53.191406 -22.75 52.46875 -24.503906 51.5 -26.765625 C 50.539062 -29.023438 49.53125 -31.378906 48.46875 -33.828125 C 47.414062 -36.285156 46.40625 -38.378906 45.4375 -40.109375 C 44.675781 -41.835938 43.910156 -43.328125 43.140625 -44.578125 L 43.140625 -44.71875 C 42.273438 -45.96875 41.457031 -47.316406 40.6875 -48.765625 C 38.851562 -48.859375 36.972656 -48.953125 35.046875 -49.046875 C 33.128906 -49.140625 31.207031 -49.238281 29.28125 -49.34375 C 29.664062 -46.070312 30.003906 -42.800781 30.296875 -39.53125 C 30.585938 -36.257812 30.78125 -32.941406 30.875 -29.578125 C 31.0625 -26.015625 31.273438 -22.429688 31.515625 -18.828125 C 31.753906 -15.222656 31.78125 -11.640625 31.59375 -8.078125 C 31.6875 -7.691406 31.734375 -7.28125 31.734375 -6.84375 C 31.734375 -6.414062 31.734375 -6.007812 31.734375 -5.625 C 30.773438 -3.800781 29.671875 -2.359375 28.421875 -1.296875 C 27.460938 -0.523438 26.359375 -0.140625 25.109375 -0.140625 C 23.859375 -0.140625 22.796875 -0.625 21.921875 -1.59375 C 21.441406 -2.351562 21.15625 -3.117188 21.0625 -3.890625 C 20.488281 -3.796875 19.910156 -3.960938 19.328125 -4.390625 C 18.753906 -4.828125 18.46875 -5.429688 18.46875 -6.203125 C 18.082031 -7.742188 17.910156 -9.351562 17.953125 -11.03125 C 18.003906 -12.71875 17.9375 -14.332031 17.75 -15.875 L 16.453125 -25.390625 C 15.867188 -28.753906 15.285156 -32.144531 14.703125 -35.5625 C 14.128906 -38.976562 13.554688 -42.367188 12.984375 -45.734375 L 12.125 -50.78125 C 12.019531 -50.78125 11.894531 -50.78125 11.75 -50.78125 C 11.613281 -50.78125 11.445312 -50.78125 11.25 -50.78125 C 11.25 -51.351562 10.960938 -51.691406 10.390625 -51.796875 C 9.617188 -51.984375 8.820312 -52.222656 8 -52.515625 C 7.1875 -52.804688 6.394531 -53.09375 5.625 -53.375 L 8.9375 -53.8125 C 7.5 -54.382812 6.054688 -55.15625 4.609375 -56.125 C 3.265625 -56.988281 2.519531 -58.210938 2.375 -59.796875 C 2.226562 -61.378906 2.539062 -62.796875 3.3125 -64.046875 C 4.082031 -65.296875 5.191406 -65.921875 6.640625 -65.921875 C 7.117188 -66.023438 7.570312 -66.078125 8 -66.078125 C 8.4375 -66.078125 8.847656 -66.078125 9.234375 -66.078125 C 8.753906 -68.578125 8.25 -71.078125 7.71875 -73.578125 C 7.1875 -76.078125 6.632812 -78.53125 6.0625 -80.9375 C 7.3125 -81.894531 8.320312 -82.953125 9.09375 -84.109375 C 7.738281 -85.265625 6.75 -86.753906 6.125 -88.578125 C 5.5 -90.398438 5.570312 -92.128906 6.34375 -93.765625 C 7.3125 -95.597656 8.753906 -96.707031 10.671875 -97.09375 C 12.597656 -97.476562 14.664062 -97.523438 16.875 -97.234375 C 19.09375 -96.941406 20.96875 -96.65625 22.5 -96.375 C 22.988281 -96.375 23.421875 -96.179688 23.796875 -95.796875 C 24.285156 -95.597656 24.789062 -95.398438 25.3125 -95.203125 C 25.84375 -95.015625 26.347656 -94.828125 26.828125 -94.640625 C 26.929688 -94.640625 27.003906 -94.613281 27.046875 -94.5625 C 27.097656 -94.519531 27.171875 -94.5 27.265625 -94.5 C 35.242188 -92 42.863281 -88.507812 50.125 -84.03125 C 57.394531 -79.5625 64.539062 -74.921875 71.5625 -70.109375 C 72.519531 -69.335938 73.191406 -68.28125 73.578125 -66.9375 C 74.628906 -66.257812 75.632812 -65.535156 76.59375 -64.765625 C 77.5625 -64.003906 78.523438 -63.238281 79.484375 -62.46875 C 81.796875 -60.738281 82.710938 -58.238281 82.234375 -54.96875 Z M 23.65625 -77.03125 C 23.75 -76.9375 23.796875 -76.789062 23.796875 -76.59375 C 23.796875 -76.40625 23.847656 -76.21875 23.953125 -76.03125 C 24.335938 -76.414062 24.789062 -76.582031 25.3125 -76.53125 C 25.84375 -76.476562 26.15625 -76.117188 26.25 -75.453125 C 26.632812 -73.910156 26.992188 -72.394531 27.328125 -70.90625 C 27.671875 -69.414062 27.988281 -67.898438 28.28125 -66.359375 C 28.664062 -66.265625 29.046875 -66.21875 29.421875 -66.21875 C 29.804688 -66.21875 30.191406 -66.171875 30.578125 -66.078125 C 30.773438 -66.941406 31.207031 -67.660156 31.875 -68.234375 C 33.320312 -69.203125 34.789062 -69.492188 36.28125 -69.109375 C 37.769531 -68.722656 39.210938 -68.070312 40.609375 -67.15625 C 42.003906 -66.238281 43.234375 -65.300781 44.296875 -64.34375 L 58.28125 -62.609375 C 52.707031 -66.453125 47.035156 -69.84375 41.265625 -72.78125 C 35.492188 -75.71875 29.484375 -77.90625 23.234375 -79.34375 Z M 33.90625 -12.125 C 33.613281 -18.082031 33.296875 -24.066406 32.953125 -30.078125 C 32.617188 -36.085938 32.019531 -42.023438 31.15625 -47.890625 L 32.3125 -47.890625 C 33.082031 -43.753906 33.660156 -39.519531 34.046875 -35.1875 C 34.429688 -30.863281 34.816406 -26.539062 35.203125 -22.21875 C 35.390625 -19.625 35.289062 -17.722656 34.90625 -16.515625 C 34.519531 -15.316406 34.1875 -13.851562 33.90625 -12.125 Z M 33.90625 -12.125 "/></g></g></g><g fill="#d0b20b" fill-opacity="1"><g transform="translate(125.428061, 245.098697)"><g><path d="M 0 0 L 5.375 -10.734375 L 9.953125 -10.734375 L 15.1875 0 L 11.078125 0 L 10.265625 -1.859375 L 4.921875 -1.859375 L 4.109375 0 Z M 5.671875 -4.0625 L 9.515625 -4.0625 L 7.625 -8.328125 L 7.59375 -8.328125 Z M 5.671875 -4.0625 "/></g></g></g><g fill="#d0b20b" fill-opacity="1"><g transform="translate(140.40548, 245.098697)"><g><path d="M 12.515625 0.296875 C 11.960938 0.296875 11.492188 0.203125 11.109375 0.015625 C 10.722656 -0.160156 10.394531 -0.390625 10.125 -0.671875 C 9.851562 -0.960938 9.613281 -1.257812 9.40625 -1.5625 L 8.78125 -2.59375 C 8.550781 -2.914062 8.28125 -3.15625 7.96875 -3.3125 C 7.65625 -3.476562 7.3125 -3.5625 6.9375 -3.5625 L 4.703125 -3.5625 L 4.703125 0 L 0.75 0 L 0.75 -10.734375 L 9.8125 -10.734375 C 11.25 -10.734375 12.363281 -10.4375 13.15625 -9.84375 C 13.957031 -9.25 14.359375 -8.410156 14.359375 -7.328125 C 14.359375 -6.523438 14.082031 -5.851562 13.53125 -5.3125 C 12.976562 -4.769531 12.210938 -4.40625 11.234375 -4.21875 L 11.234375 -4.203125 C 11.410156 -4.140625 11.578125 -4.035156 11.734375 -3.890625 C 11.898438 -3.742188 12.050781 -3.578125 12.1875 -3.390625 L 12.921875 -2.28125 C 13.023438 -2.132812 13.144531 -2.015625 13.28125 -1.921875 C 13.425781 -1.835938 13.609375 -1.796875 13.828125 -1.796875 C 13.960938 -1.796875 14.101562 -1.828125 14.25 -1.890625 C 14.40625 -1.953125 14.53125 -2.03125 14.625 -2.125 L 15.25 -0.546875 C 15.0625 -0.378906 14.8125 -0.226562 14.5 -0.09375 C 14.195312 0.03125 13.867188 0.125 13.515625 0.1875 C 13.171875 0.257812 12.835938 0.296875 12.515625 0.296875 Z M 4.703125 -5.765625 L 8.59375 -5.765625 C 9.15625 -5.765625 9.59375 -5.878906 9.90625 -6.109375 C 10.21875 -6.347656 10.375 -6.675781 10.375 -7.09375 C 10.375 -7.5 10.21875 -7.820312 9.90625 -8.0625 C 9.601562 -8.300781 9.171875 -8.421875 8.609375 -8.421875 L 4.703125 -8.421875 Z M 4.703125 -5.765625 "/></g></g></g><g fill="#d0b20b" fill-opacity="1"><g transform="translate(155.442864, 245.098697)"><g><path d="M 4.3125 0 L 4.3125 -7.96875 L 0.140625 -7.96875 L 0.140625 -10.734375 L 12.4375 -10.734375 L 12.4375 -7.96875 L 8.265625 -7.96875 L 8.265625 0 Z M 4.3125 0 "/></g></g></g><g fill="#d0b20b" fill-opacity="1"><g transform="translate(167.79659, 245.098697)"><g/></g></g><g fill="#d0b20b" fill-opacity="1"><g transform="translate(171.094846, 245.098697)"><g><path d="M 0.75 0 L 0.75 -10.734375 L 8.40625 -10.734375 C 10.488281 -10.734375 12.09375 -10.269531 13.21875 -9.34375 C 14.34375 -8.425781 14.90625 -7.101562 14.90625 -5.375 C 14.90625 -3.65625 14.34375 -2.328125 13.21875 -1.390625 C 12.09375 -0.460938 10.488281 0 8.40625 0 Z M 4.59375 -2.671875 L 7.828125 -2.671875 C 8.867188 -2.671875 9.664062 -2.90625 10.21875 -3.375 C 10.78125 -3.84375 11.0625 -4.507812 11.0625 -5.375 C 11.0625 -6.238281 10.78125 -6.90625 10.21875 -7.375 C 9.664062 -7.84375 8.867188 -8.078125 7.828125 -8.078125 L 4.59375 -8.078125 Z M 4.59375 -2.671875 "/></g></g></g><g fill="#d0b20b" fill-opacity="1"><g transform="translate(186.267163, 245.098697)"><g><path d="M 0.75 0 L 0.75 -10.734375 L 12.109375 -10.734375 L 12.109375 -8.3125 L 4.59375 -8.3125 L 4.59375 -6.515625 L 11.5 -6.515625 L 11.5 -4.421875 L 4.59375 -4.421875 L 4.59375 -2.4375 L 12.25 -2.4375 L 12.25 0 Z M 0.75 0 "/></g></g></g><g fill="#d0b20b" fill-opacity="1"><g transform="translate(198.605896, 245.098697)"><g><path d="M 7.0625 0.3125 C 6.21875 0.3125 5.363281 0.234375 4.5 0.078125 C 3.632812 -0.078125 2.835938 -0.289062 2.109375 -0.5625 C 1.378906 -0.84375 0.773438 -1.164062 0.296875 -1.53125 L 1.609375 -3.890625 C 2.035156 -3.554688 2.554688 -3.257812 3.171875 -3 C 3.796875 -2.75 4.460938 -2.546875 5.171875 -2.390625 C 5.878906 -2.242188 6.582031 -2.171875 7.28125 -2.171875 C 8.050781 -2.171875 8.65625 -2.253906 9.09375 -2.421875 C 9.539062 -2.585938 9.765625 -2.816406 9.765625 -3.109375 C 9.765625 -3.335938 9.582031 -3.523438 9.21875 -3.671875 C 8.851562 -3.828125 8.265625 -3.941406 7.453125 -4.015625 L 5.46875 -4.25 C 3.757812 -4.425781 2.515625 -4.765625 1.734375 -5.265625 C 0.960938 -5.773438 0.578125 -6.503906 0.578125 -7.453125 C 0.585938 -8.222656 0.863281 -8.878906 1.40625 -9.421875 C 1.945312 -9.960938 2.703125 -10.367188 3.671875 -10.640625 C 4.648438 -10.921875 5.785156 -11.0625 7.078125 -11.0625 C 8.203125 -11.0625 9.269531 -10.941406 10.28125 -10.703125 C 11.289062 -10.460938 12.128906 -10.128906 12.796875 -9.703125 L 11.71875 -7.4375 C 11.125 -7.832031 10.414062 -8.140625 9.59375 -8.359375 C 8.769531 -8.585938 7.941406 -8.695312 7.109375 -8.6875 C 6.335938 -8.675781 5.703125 -8.585938 5.203125 -8.421875 C 4.703125 -8.253906 4.445312 -8.023438 4.4375 -7.734375 C 4.425781 -7.535156 4.578125 -7.375 4.890625 -7.25 C 5.210938 -7.125 5.722656 -7.023438 6.421875 -6.953125 L 8.421875 -6.734375 C 10.234375 -6.554688 11.550781 -6.207031 12.375 -5.6875 C 13.195312 -5.164062 13.609375 -4.414062 13.609375 -3.4375 C 13.617188 -2.695312 13.351562 -2.039062 12.8125 -1.46875 C 12.269531 -0.90625 11.507812 -0.46875 10.53125 -0.15625 C 9.550781 0.15625 8.394531 0.3125 7.0625 0.3125 Z M 7.0625 0.3125 "/></g></g></g><g fill="#d0b20b" fill-opacity="1"><g transform="translate(212.293958, 245.098697)"><g><path d="M 0.75 0 L 0.75 -10.734375 L 4.6875 -10.734375 L 4.6875 0 Z M 0.75 0 "/></g></g></g><g fill="#d0b20b" fill-opacity="1"><g transform="translate(217.526243, 245.098697)"><g><path d="M 7.421875 0.25 C 6.046875 0.25 4.832031 0.0234375 3.78125 -0.421875 C 2.738281 -0.867188 1.925781 -1.5 1.34375 -2.3125 C 0.769531 -3.125 0.484375 -4.066406 0.484375 -5.140625 C 0.484375 -6.023438 0.664062 -6.820312 1.03125 -7.53125 C 1.394531 -8.25 1.910156 -8.867188 2.578125 -9.390625 C 3.242188 -9.910156 4.046875 -10.3125 4.984375 -10.59375 C 5.921875 -10.875 6.957031 -11.015625 8.09375 -11.015625 C 9.257812 -11.015625 10.3125 -10.863281 11.25 -10.5625 C 12.1875 -10.269531 12.957031 -9.859375 13.5625 -9.328125 C 14.164062 -8.796875 14.546875 -8.175781 14.703125 -7.46875 L 11 -6.84375 C 10.851562 -7.289062 10.507812 -7.648438 9.96875 -7.921875 C 9.4375 -8.203125 8.8125 -8.34375 8.09375 -8.34375 C 7.375 -8.34375 6.738281 -8.210938 6.1875 -7.953125 C 5.644531 -7.703125 5.21875 -7.34375 4.90625 -6.875 C 4.601562 -6.414062 4.453125 -5.875 4.453125 -5.25 C 4.453125 -4.664062 4.625 -4.148438 4.96875 -3.703125 C 5.3125 -3.265625 5.796875 -2.921875 6.421875 -2.671875 C 7.046875 -2.421875 7.769531 -2.296875 8.59375 -2.296875 C 9.238281 -2.296875 9.820312 -2.378906 10.34375 -2.546875 C 10.863281 -2.710938 11.285156 -2.941406 11.609375 -3.234375 C 11.929688 -3.523438 12.117188 -3.859375 12.171875 -4.234375 L 6.46875 -4.234375 L 6.46875 -6.1875 L 15.96875 -6.1875 L 15.96875 0 L 12.859375 0 L 12.703125 -1.796875 L 12.6875 -1.796875 C 12.351562 -1.390625 11.914062 -1.03125 11.375 -0.71875 C 10.84375 -0.40625 10.238281 -0.164062 9.5625 0 C 8.882812 0.164062 8.171875 0.25 7.421875 0.25 Z M 7.421875 0.25 "/></g></g></g><g fill="#d0b20b" fill-opacity="1"><g transform="translate(233.808005, 245.098697)"><g><path d="M 0.75 0 L 0.75 -10.734375 L 5.5 -10.734375 L 11.265625 -3.765625 L 11.28125 -3.765625 L 11.28125 -10.734375 L 15.015625 -10.734375 L 15.015625 0 L 10.265625 0 L 4.5 -7.0625 L 4.484375 -7.0625 L 4.484375 0 Z M 0.75 0 "/></g></g></g><g clip-path="url(#109a49039e)"><g clip-path="url(#79865c6e5c)"><path stroke-linecap="butt" transform="matrix(1.159191, 0, 0, 1.159191, 156.184521, 258.64554)" fill="none" stroke-linejoin="miter" d="M 12.993182 -0.00087006 L 41.029988 -0.00087006 C 48.20431 -0.00087006 54.0206 5.815419 54.0206 12.993111 C 54.0206 20.167434 48.20431 25.983723 41.029988 25.983723 L 12.993182 25.983723 C 5.81549 25.983723 -0.000799604 20.167434 -0.000799604 12.993111 C -0.000799604 5.815419 5.81549 -0.00087006 12.993182 -0.00087006 Z M 12.993182 -0.00087006 " stroke="#d0b20b" stroke-width="1.941009" stroke-opacity="1" stroke-miterlimit="4"/></g></g><g fill="#d0b20b" fill-opacity="1"><g transform="translate(178.661493, 274.874167)"><g><path d="M 0.390625 0 L 0.390625 -0.765625 C 0.390625 -1.015625 0.4375 -1.234375 0.53125 -1.421875 C 0.632812 -1.609375 0.765625 -1.769531 0.921875 -1.90625 C 1.078125 -2.050781 1.25 -2.175781 1.4375 -2.28125 C 1.625 -2.382812 1.8125 -2.484375 2 -2.578125 C 2.1875 -2.671875 2.359375 -2.765625 2.515625 -2.859375 C 2.671875 -2.953125 2.796875 -3.054688 2.890625 -3.171875 C 2.984375 -3.285156 3.03125 -3.425781 3.03125 -3.59375 C 3.03125 -3.789062 2.957031 -3.953125 2.8125 -4.078125 C 2.675781 -4.210938 2.488281 -4.28125 2.25 -4.28125 C 2 -4.28125 1.785156 -4.203125 1.609375 -4.046875 C 1.429688 -3.898438 1.320312 -3.679688 1.28125 -3.390625 L 0.296875 -3.390625 C 0.304688 -3.710938 0.382812 -4.003906 0.53125 -4.265625 C 0.675781 -4.523438 0.890625 -4.734375 1.171875 -4.890625 C 1.460938 -5.046875 1.832031 -5.125 2.28125 -5.125 C 2.65625 -5.125 2.976562 -5.054688 3.25 -4.921875 C 3.519531 -4.796875 3.726562 -4.617188 3.875 -4.390625 C 4.03125 -4.160156 4.109375 -3.894531 4.109375 -3.59375 C 4.109375 -3.34375 4.0625 -3.125 3.96875 -2.9375 C 3.875 -2.75 3.75 -2.585938 3.59375 -2.453125 C 3.445312 -2.328125 3.28125 -2.210938 3.09375 -2.109375 C 2.90625 -2.015625 2.71875 -1.925781 2.53125 -1.84375 C 2.351562 -1.757812 2.1875 -1.675781 2.03125 -1.59375 C 1.882812 -1.507812 1.765625 -1.410156 1.671875 -1.296875 C 1.578125 -1.191406 1.53125 -1.0625 1.53125 -0.90625 L 1.53125 -0.859375 L 4.109375 -0.859375 L 4.109375 0 Z M 0.390625 0 "/></g></g></g><g fill="#d0b20b" fill-opacity="1"><g transform="translate(182.991626, 274.874167)"><g><path d="M 2.25 -5.125 C 2.851562 -5.125 3.328125 -4.898438 3.671875 -4.453125 C 4.023438 -4.003906 4.203125 -3.359375 4.203125 -2.515625 C 4.203125 -1.679688 4.03125 -1.039062 3.6875 -0.59375 C 3.34375 -0.144531 2.863281 0.078125 2.25 0.078125 C 1.644531 0.078125 1.171875 -0.140625 0.828125 -0.578125 C 0.484375 -1.023438 0.3125 -1.671875 0.3125 -2.515625 C 0.3125 -3.066406 0.390625 -3.535156 0.546875 -3.921875 C 0.703125 -4.316406 0.925781 -4.613281 1.21875 -4.8125 C 1.507812 -5.019531 1.851562 -5.125 2.25 -5.125 Z M 2.25 -0.75 C 2.550781 -0.75 2.769531 -0.882812 2.90625 -1.15625 C 3.050781 -1.425781 3.125 -1.878906 3.125 -2.515625 C 3.125 -3.160156 3.050781 -3.617188 2.90625 -3.890625 C 2.769531 -4.171875 2.550781 -4.3125 2.25 -4.3125 C 1.957031 -4.3125 1.738281 -4.171875 1.59375 -3.890625 C 1.445312 -3.609375 1.375 -3.148438 1.375 -2.515625 C 1.375 -1.878906 1.441406 -1.425781 1.578125 -1.15625 C 1.722656 -0.882812 1.945312 -0.75 2.25 -0.75 Z M 2.25 -0.75 "/></g></g></g><g fill="#d0b20b" fill-opacity="1"><g transform="translate(187.388, 274.874167)"><g><path d="M 0.390625 0 L 0.390625 -0.765625 C 0.390625 -1.015625 0.4375 -1.234375 0.53125 -1.421875 C 0.632812 -1.609375 0.765625 -1.769531 0.921875 -1.90625 C 1.078125 -2.050781 1.25 -2.175781 1.4375 -2.28125 C 1.625 -2.382812 1.8125 -2.484375 2 -2.578125 C 2.1875 -2.671875 2.359375 -2.765625 2.515625 -2.859375 C 2.671875 -2.953125 2.796875 -3.054688 2.890625 -3.171875 C 2.984375 -3.285156 3.03125 -3.425781 3.03125 -3.59375 C 3.03125 -3.789062 2.957031 -3.953125 2.8125 -4.078125 C 2.675781 -4.210938 2.488281 -4.28125 2.25 -4.28125 C 2 -4.28125 1.785156 -4.203125 1.609375 -4.046875 C 1.429688 -3.898438 1.320312 -3.679688 1.28125 -3.390625 L 0.296875 -3.390625 C 0.304688 -3.710938 0.382812 -4.003906 0.53125 -4.265625 C 0.675781 -4.523438 0.890625 -4.734375 1.171875 -4.890625 C 1.460938 -5.046875 1.832031 -5.125 2.28125 -5.125 C 2.65625 -5.125 2.976562 -5.054688 3.25 -4.921875 C 3.519531 -4.796875 3.726562 -4.617188 3.875 -4.390625 C 4.03125 -4.160156 4.109375 -3.894531 4.109375 -3.59375 C 4.109375 -3.34375 4.0625 -3.125 3.96875 -2.9375 C 3.875 -2.75 3.75 -2.585938 3.59375 -2.453125 C 3.445312 -2.328125 3.28125 -2.210938 3.09375 -2.109375 C 2.90625 -2.015625 2.71875 -1.925781 2.53125 -1.84375 C 2.351562 -1.757812 2.1875 -1.675781 2.03125 -1.59375 C 1.882812 -1.507812 1.765625 -1.410156 1.671875 -1.296875 C 1.578125 -1.191406 1.53125 -1.0625 1.53125 -0.90625 L 1.53125 -0.859375 L 4.109375 -0.859375 L 4.109375 0 Z M 0.390625 0 "/></g></g></g><g fill="#d0b20b" fill-opacity="1"><g transform="translate(191.718133, 274.874167)"><g><path d="M 2.609375 -5.046875 L 3.609375 -5.046875 L 3.609375 -1.96875 L 4.375 -1.96875 L 4.375 -1.125 L 3.609375 -1.125 L 3.609375 0 L 2.625 0 L 2.625 -1.125 L 0.296875 -1.125 L 0.296875 -1.953125 Z M 1.25 -1.96875 L 2.625 -1.96875 L 2.625 -3.828125 Z M 1.25 -1.96875 "/></g></g></g></svg>