<svg xmlns="http://www.w3.org/2000/svg" xmlns:xlink="http://www.w3.org/1999/xlink" width="500" zoomAndPan="magnify" viewBox="0 0 375 374.999991" height="500" preserveAspectRatio="xMidYMid meet" version="1.0"><defs><g/><clipPath id="150096d740"><path d="M 161.609375 260.746094 L 212.867188 260.746094 L 212.867188 291.03125 L 161.609375 291.03125 Z M 161.609375 260.746094 " clip-rule="nonzero"/></clipPath><clipPath id="ab99c90a88"><path d="M 176.746094 260.746094 L 198.238281 260.746094 C 206.597656 260.746094 213.375 267.519531 213.375 275.878906 C 213.375 284.238281 206.597656 291.015625 198.238281 291.015625 L 176.746094 291.015625 C 168.386719 291.015625 161.609375 284.238281 161.609375 275.878906 C 161.609375 267.519531 168.386719 260.746094 176.746094 260.746094 Z M 176.746094 260.746094 " clip-rule="nonzero"/></clipPath></defs><g fill="#2b2b2b" fill-opacity="1"><g transform="translate(-0.620603, 214.297153)"><g><path d="M 53.0625 -4.34375 C 52.476562 -4.539062 51.820312 -5.554688 51.09375 -7.390625 C 50.375 -9.234375 49.601562 -11.503906 48.78125 -14.203125 C 47.96875 -16.910156 47.195312 -19.710938 46.46875 -22.609375 C 45.738281 -25.515625 45.082031 -28.125 44.5 -30.4375 C 43.925781 -32.757812 43.539062 -34.453125 43.34375 -35.515625 L 32.046875 -35.375 C 30.984375 -31.03125 30.0625 -26.707031 29.28125 -22.40625 C 28.507812 -18.101562 27.929688 -13.726562 27.546875 -9.28125 C 27.546875 -8.40625 27.132812 -7.96875 26.3125 -7.96875 C 25.488281 -7.96875 25.128906 -8.40625 25.234375 -9.28125 C 25.617188 -13.625 26.171875 -17.992188 26.890625 -22.390625 C 27.617188 -26.796875 28.660156 -31.125 30.015625 -35.375 L 28.703125 -35.375 C 28.222656 -33.632812 27.738281 -31.53125 27.25 -29.0625 C 26.769531 -26.601562 26.3125 -24.1875 25.875 -21.8125 C 25.445312 -19.445312 25.085938 -17.46875 24.796875 -15.875 C 24.503906 -14.28125 24.359375 -13.484375 24.359375 -13.484375 L 23.484375 -6.953125 C 23.191406 -3.671875 22.078125 -1.304688 20.140625 0.140625 C 18.210938 1.585938 16.085938 2.164062 13.765625 1.875 C 11.453125 1.59375 9.5 0.488281 7.90625 -1.4375 C 6.3125 -3.375 5.753906 -6.035156 6.234375 -9.421875 C 6.816406 -13.671875 7.492188 -17.921875 8.265625 -22.171875 C 9.035156 -26.429688 9.953125 -30.640625 11.015625 -34.796875 C 10.335938 -34.703125 9.660156 -34.628906 8.984375 -34.578125 C 8.304688 -34.523438 7.679688 -34.5 7.109375 -34.5 C 7.296875 -34.988281 7.34375 -35.425781 7.25 -35.8125 C 4.925781 -36.394531 3.234375 -37.648438 2.171875 -39.578125 C 1.109375 -41.515625 0.816406 -43.664062 1.296875 -46.03125 C 1.785156 -48.394531 3.140625 -50.566406 5.359375 -52.546875 C 7.585938 -54.535156 10.875 -55.867188 15.21875 -56.546875 C 16.28125 -61.378906 17.441406 -66.140625 18.703125 -70.828125 C 19.960938 -75.515625 21.507812 -80.082031 23.34375 -84.53125 C 24.207031 -86.457031 25.171875 -88.554688 26.234375 -90.828125 C 27.304688 -93.097656 28.640625 -95.078125 30.234375 -96.765625 C 31.828125 -98.460938 33.832031 -99.3125 36.25 -99.3125 C 37.5 -99.40625 38.753906 -99.066406 40.015625 -98.296875 C 41.273438 -97.523438 42.191406 -96.5625 42.765625 -95.40625 C 44.890625 -95.300781 46.65625 -94.546875 48.0625 -93.140625 C 49.46875 -91.742188 50.265625 -89.890625 50.453125 -87.578125 C 50.648438 -84.671875 50.890625 -81.742188 51.171875 -78.796875 C 51.460938 -75.847656 51.753906 -72.972656 52.046875 -70.171875 C 52.140625 -70.078125 52.238281 -70.03125 52.34375 -70.03125 C 52.4375 -72.539062 52.554688 -75.023438 52.703125 -77.484375 C 52.847656 -79.953125 53.066406 -82.394531 53.359375 -84.8125 C 53.359375 -85.195312 53.429688 -84.328125 53.578125 -82.203125 C 53.722656 -80.078125 53.890625 -77.347656 54.078125 -74.015625 C 54.273438 -70.679688 54.46875 -67.347656 54.65625 -64.015625 C 54.851562 -60.679688 55.097656 -57.898438 55.390625 -55.671875 C 58.191406 -55.378906 60.363281 -54.4375 61.90625 -52.84375 C 63.457031 -51.25 64.425781 -49.410156 64.8125 -47.328125 C 65.195312 -45.253906 65 -43.203125 64.21875 -41.171875 C 63.445312 -39.140625 62.050781 -37.5 60.03125 -36.25 C 60.988281 -31.988281 62 -27.175781 63.0625 -21.8125 C 64.125 -16.457031 64.945312 -11.601562 65.53125 -7.25 C 65.914062 -3.957031 65.648438 -1.46875 64.734375 0.21875 C 63.816406 1.90625 62.609375 2.84375 61.109375 3.03125 C 59.609375 3.226562 58.109375 2.695312 56.609375 1.4375 C 55.117188 0.1875 53.9375 -1.738281 53.0625 -4.34375 Z M 31.609375 -54.21875 C 32.671875 -54.414062 34.046875 -54.535156 35.734375 -54.578125 C 37.429688 -54.628906 38.757812 -54.703125 39.71875 -54.796875 C 39.53125 -56.054688 39.3125 -57.84375 39.0625 -60.15625 C 38.820312 -62.476562 38.535156 -64.96875 38.203125 -67.625 C 37.867188 -70.289062 37.457031 -72.734375 36.96875 -74.953125 C 35.8125 -70.898438 34.796875 -67.273438 33.921875 -64.078125 C 33.054688 -60.890625 32.285156 -57.601562 31.609375 -54.21875 Z M 31.609375 -54.21875 "/></g></g></g><g fill="#2b2b2b" fill-opacity="1"><g transform="translate(54.325049, 214.297153)"><g><path d="M 62.921875 0.4375 C 62.054688 1.019531 61.09375 1.019531 60.03125 0.4375 C 58.09375 -0.4375 56.785156 -1.863281 56.109375 -3.84375 C 55.429688 -5.820312 54.898438 -7.726562 54.515625 -9.5625 L 53.640625 -14.5 L 28.421875 -59.59375 C 28.035156 -60.070312 27.644531 -60.597656 27.25 -61.171875 C 26.863281 -61.753906 26.476562 -62.289062 26.09375 -62.78125 C 26.195312 -57.851562 26.222656 -52.921875 26.171875 -47.984375 C 26.117188 -43.054688 26.09375 -38.128906 26.09375 -33.203125 C 26.289062 -30.304688 26.410156 -27.40625 26.453125 -24.5 C 26.503906 -21.601562 26.578125 -18.703125 26.671875 -15.796875 C 26.773438 -14.347656 26.875 -12.582031 26.96875 -10.5 C 27.0625 -8.425781 26.84375 -6.566406 26.3125 -4.921875 C 25.78125 -3.285156 24.5 -2.320312 22.46875 -2.03125 C 21.601562 -0.582031 20.421875 0.40625 18.921875 0.9375 C 17.421875 1.46875 15.847656 1.492188 14.203125 1.015625 C 12.660156 0.628906 11.3125 -0.285156 10.15625 -1.734375 C 9.757812 -7.828125 9.441406 -13.914062 9.203125 -20 C 8.960938 -26.09375 8.742188 -32.1875 8.546875 -38.28125 C 8.359375 -43.207031 8.210938 -48.160156 8.109375 -53.140625 C 8.015625 -58.117188 7.875 -63.070312 7.6875 -68 C 7.59375 -71.1875 7.519531 -74.375 7.46875 -77.5625 C 7.414062 -80.75 7.488281 -83.890625 7.6875 -86.984375 C 8.65625 -87.765625 9.570312 -88.203125 10.4375 -88.296875 C 10.4375 -89.453125 10.820312 -90.5625 11.59375 -91.625 C 12.757812 -93.082031 14.066406 -93.785156 15.515625 -93.734375 C 16.960938 -93.679688 18.457031 -93.144531 20 -92.125 C 21.550781 -91.113281 22.953125 -89.957031 24.203125 -88.65625 C 25.460938 -87.351562 26.429688 -86.265625 27.109375 -85.390625 C 29.617188 -82.109375 31.910156 -78.75 33.984375 -75.3125 C 36.066406 -71.882812 38.078125 -68.382812 40.015625 -64.8125 C 41.660156 -62.007812 43.253906 -59.15625 44.796875 -56.25 C 46.347656 -53.351562 47.847656 -50.40625 49.296875 -47.40625 C 49.484375 -47.019531 49.578125 -46.535156 49.578125 -45.953125 L 51.90625 -41.46875 C 51.519531 -45.132812 50.988281 -48.851562 50.3125 -52.625 C 49.632812 -56.394531 48.957031 -60.117188 48.28125 -63.796875 C 47.800781 -66.398438 47.316406 -69.003906 46.828125 -71.609375 C 46.347656 -74.222656 45.71875 -76.835938 44.9375 -79.453125 C 44.550781 -80.804688 44.1875 -82.179688 43.84375 -83.578125 C 43.507812 -84.984375 43.734375 -86.410156 44.515625 -87.859375 C 45.191406 -89.015625 46.007812 -89.882812 46.96875 -90.46875 C 46.96875 -90.5625 46.992188 -90.609375 47.046875 -90.609375 C 47.097656 -90.609375 47.125 -90.660156 47.125 -90.765625 C 47.988281 -92.398438 49.316406 -93.21875 51.109375 -93.21875 C 52.898438 -93.21875 54.421875 -92.785156 55.671875 -91.921875 C 55.960938 -91.828125 56.300781 -91.582031 56.6875 -91.1875 C 56.976562 -89.84375 57.316406 -88.46875 57.703125 -87.0625 C 58.085938 -85.65625 58.472656 -84.28125 58.859375 -82.9375 C 60.023438 -78.78125 60.992188 -74.5 61.765625 -70.09375 C 62.535156 -65.695312 63.257812 -61.328125 63.9375 -56.984375 C 65.382812 -48.179688 66.539062 -39.285156 67.40625 -30.296875 C 68.28125 -21.304688 69.007812 -12.367188 69.59375 -3.484375 C 68.820312 -2.421875 67.851562 -1.5 66.6875 -0.71875 C 65.53125 0.0507812 64.273438 0.4375 62.921875 0.4375 Z M 71.046875 -4.921875 C 70.847656 -4.921875 70.65625 -4.78125 70.46875 -4.5 C 69.5 -18.320312 68.164062 -32.117188 66.46875 -45.890625 C 64.78125 -59.660156 62.4375 -73.265625 59.4375 -86.703125 C 59.25 -87.285156 59.394531 -87.816406 59.875 -88.296875 C 60.257812 -88.773438 60.789062 -88.988281 61.46875 -88.9375 C 62.144531 -88.894531 62.535156 -88.488281 62.640625 -87.71875 C 65.242188 -75.15625 67.296875 -62.46875 68.796875 -49.65625 C 70.296875 -36.851562 70.992188 -24.019531 70.890625 -11.15625 C 70.992188 -10.675781 71.066406 -9.785156 71.109375 -8.484375 C 71.160156 -7.179688 71.140625 -5.992188 71.046875 -4.921875 Z M 7.546875 -15.515625 C 7.148438 -20.640625 6.851562 -25.976562 6.65625 -31.53125 C 6.46875 -37.09375 6.28125 -42.484375 6.09375 -47.703125 C 5.894531 -52.828125 5.75 -58 5.65625 -63.21875 C 5.5625 -68.4375 5.460938 -73.65625 5.359375 -78.875 C 5.265625 -80.125 5.3125 -81.398438 5.5 -82.703125 C 5.695312 -84.015625 6.039062 -85.25 6.53125 -86.40625 C 6.425781 -84.09375 6.398438 -81.773438 6.453125 -79.453125 C 6.503906 -77.128906 6.578125 -74.8125 6.671875 -72.5 C 6.765625 -67.46875 6.882812 -62.4375 7.03125 -57.40625 C 7.175781 -52.382812 7.296875 -47.3125 7.390625 -42.1875 L 8.703125 -9.5625 C 8.703125 -9.5625 8.578125 -9.78125 8.328125 -10.21875 C 8.085938 -10.65625 7.828125 -12.421875 7.546875 -15.515625 Z M 23.78125 -22.625 L 23.34375 -22.1875 C 23.34375 -22.1875 23.316406 -22.1875 23.265625 -22.1875 C 23.222656 -22.1875 23.148438 -22.132812 23.046875 -22.03125 L 22.90625 -13.34375 C 22.90625 -12.175781 23.125 -10.796875 23.5625 -9.203125 C 24 -7.609375 23.972656 -5.894531 23.484375 -4.0625 C 24.453125 -5.707031 24.835938 -7.347656 24.640625 -8.984375 C 24.546875 -10.335938 24.472656 -11.738281 24.421875 -13.1875 C 24.378906 -14.644531 24.257812 -16.097656 24.0625 -17.546875 C 24.0625 -18.410156 24.035156 -19.253906 23.984375 -20.078125 C 23.941406 -20.898438 23.875 -21.75 23.78125 -22.625 Z M 23.78125 -22.625 "/></g></g></g><g fill="#2b2b2b" fill-opacity="1"><g transform="translate(115.069874, 214.297153)"><g><path d="M 54.796875 -62.203125 C 55.578125 -57.753906 56.0625 -53.257812 56.25 -48.71875 C 56.445312 -44.175781 56.300781 -39.632812 55.8125 -35.09375 C 55.425781 -31.125 54.796875 -27.035156 53.921875 -22.828125 C 53.054688 -18.628906 51.414062 -14.835938 49 -11.453125 C 48.226562 -10.390625 47.40625 -9.347656 46.53125 -8.328125 C 45.664062 -7.316406 44.703125 -6.378906 43.640625 -5.515625 C 42.285156 -4.160156 40.757812 -3.019531 39.0625 -2.09375 C 37.375 -1.175781 35.515625 -0.578125 33.484375 -0.296875 C 31.941406 -0.191406 30.347656 -0.191406 28.703125 -0.296875 C 26.285156 0.0976562 23.820312 -0.0859375 21.3125 -0.859375 C 18.800781 -1.640625 16.578125 -2.800781 14.640625 -4.34375 C 11.253906 -7.25 8.738281 -10.753906 7.09375 -14.859375 C 5.457031 -18.960938 4.253906 -23.144531 3.484375 -27.40625 C 2.035156 -36.6875 2.035156 -45.960938 3.484375 -55.234375 C 4.929688 -64.515625 8.070312 -73.21875 12.90625 -81.34375 C 12.90625 -81.34375 13 -81.4375 13.1875 -81.625 C 14.644531 -85.488281 16.582031 -88.96875 19 -92.0625 C 19.09375 -92.257812 19.1875 -92.332031 19.28125 -92.28125 C 19.375 -92.226562 19.375 -92.109375 19.28125 -91.921875 C 18.894531 -91.242188 18.484375 -90.539062 18.046875 -89.8125 C 17.609375 -89.09375 17.25 -88.347656 16.96875 -87.578125 C 16.582031 -86.796875 16.242188 -85.992188 15.953125 -85.171875 C 15.660156 -84.359375 15.367188 -83.5625 15.078125 -82.78125 C 15.273438 -82.882812 15.492188 -82.910156 15.734375 -82.859375 C 15.972656 -82.804688 16.140625 -82.78125 16.234375 -82.78125 C 17.492188 -85.488281 18.992188 -87.859375 20.734375 -89.890625 C 22.472656 -91.921875 24.503906 -93.175781 26.828125 -93.65625 C 27.785156 -94.039062 28.722656 -94.351562 29.640625 -94.59375 C 30.566406 -94.84375 31.507812 -94.914062 32.46875 -94.8125 C 33.539062 -95.007812 34.628906 -95.082031 35.734375 -95.03125 C 36.847656 -94.988281 37.835938 -94.722656 38.703125 -94.234375 C 39.671875 -93.660156 40.515625 -92.84375 41.234375 -91.78125 C 41.960938 -90.71875 42.570312 -89.703125 43.0625 -88.734375 C 43.644531 -88.921875 44.25 -88.941406 44.875 -88.796875 C 45.5 -88.648438 46.003906 -88.242188 46.390625 -87.578125 C 47.453125 -85.640625 48.46875 -83.65625 49.4375 -81.625 C 50.40625 -79.59375 51.226562 -77.515625 51.90625 -75.390625 C 52.582031 -73.265625 53.132812 -71.085938 53.5625 -68.859375 C 54 -66.640625 54.410156 -64.421875 54.796875 -62.203125 Z M 36.6875 -20.015625 C 37.9375 -23.390625 38.800781 -26.863281 39.28125 -30.4375 C 39.769531 -34.019531 40.015625 -37.597656 40.015625 -41.171875 C 39.722656 -44.847656 39.429688 -48.5 39.140625 -52.125 C 38.847656 -55.75 38.414062 -59.347656 37.84375 -62.921875 C 37.644531 -63.984375 37.445312 -65.070312 37.25 -66.1875 C 37.0625 -67.300781 36.875 -68.335938 36.6875 -69.296875 C 36.289062 -70.648438 35.851562 -71.957031 35.375 -73.21875 C 34.894531 -74.476562 34.410156 -75.734375 33.921875 -76.984375 C 33.734375 -77.472656 33.515625 -78.003906 33.265625 -78.578125 C 33.023438 -79.160156 32.757812 -79.691406 32.46875 -80.171875 C 32.28125 -80.367188 32.085938 -80.46875 31.890625 -80.46875 L 31.171875 -80.46875 C 30.785156 -79.695312 30.421875 -78.875 30.078125 -78 C 29.742188 -77.132812 29.476562 -76.3125 29.28125 -75.53125 C 28.507812 -72.925781 27.8125 -70.289062 27.1875 -67.625 C 26.5625 -64.96875 26.050781 -62.238281 25.65625 -59.4375 C 24.976562 -54.125 24.6875 -48.710938 24.78125 -43.203125 C 24.882812 -37.691406 25.375 -32.234375 26.25 -26.828125 C 26.53125 -25.179688 26.332031 -23.726562 25.65625 -22.46875 C 23.632812 -31.945312 22.835938 -41.734375 23.265625 -51.828125 C 23.703125 -61.929688 26 -71.332031 30.15625 -80.03125 C 29.769531 -79.738281 29.40625 -79.328125 29.0625 -78.796875 C 28.726562 -78.265625 28.414062 -77.757812 28.125 -77.28125 C 26.769531 -74.570312 25.609375 -71.765625 24.640625 -68.859375 C 23.679688 -65.960938 22.910156 -63.019531 22.328125 -60.03125 C 22.128906 -59.632812 22.03125 -59.4375 22.03125 -59.4375 C 21.75 -57.800781 21.535156 -56.132812 21.390625 -54.4375 C 21.242188 -52.75 21.070312 -51.082031 20.875 -49.4375 C 20.6875 -44.507812 20.859375 -39.601562 21.390625 -34.71875 C 21.921875 -29.84375 22.71875 -25.035156 23.78125 -20.296875 C 23.289062 -19.910156 22.757812 -19.671875 22.1875 -19.578125 C 20.445312 -19.191406 18.753906 -19.476562 17.109375 -20.4375 C 17.878906 -18.894531 18.941406 -17.300781 20.296875 -15.65625 C 21.648438 -14.007812 23.21875 -12.773438 25 -11.953125 C 26.789062 -11.140625 28.703125 -11.019531 30.734375 -11.59375 C 32.378906 -12.175781 33.6875 -13.335938 34.65625 -15.078125 C 35.132812 -15.847656 35.539062 -16.644531 35.875 -17.46875 C 36.21875 -18.289062 36.488281 -19.140625 36.6875 -20.015625 Z M 36.6875 -20.015625 "/></g></g></g><g fill="#2b2b2b" fill-opacity="1"><g transform="translate(162.766582, 214.297153)"><g><path d="M 87.28125 -14.78125 C 87.476562 -12.757812 87.453125 -10.734375 87.203125 -8.703125 C 86.960938 -6.671875 86.3125 -4.738281 85.25 -2.90625 C 84.1875 -1.0625 82.519531 0.265625 80.25 1.078125 C 77.976562 1.898438 75.925781 1.394531 74.09375 -0.4375 C 72.445312 -0.820312 71.039062 -1.664062 69.875 -2.96875 C 68.71875 -4.269531 68.140625 -5.796875 68.140625 -7.546875 C 67.847656 -19.910156 66.15625 -32.234375 63.0625 -44.515625 C 62.382812 -47.609375 61.707031 -50.675781 61.03125 -53.71875 C 60.363281 -56.757812 59.691406 -59.78125 59.015625 -62.78125 C 57.273438 -57.75 55.582031 -52.359375 53.9375 -46.609375 C 52.289062 -40.859375 50.9375 -35.953125 49.875 -31.890625 C 48.90625 -27.929688 47.960938 -23.875 47.046875 -19.71875 C 46.128906 -15.5625 45.378906 -11.9375 44.796875 -8.84375 C 44.703125 -8.550781 44.582031 -8.425781 44.4375 -8.46875 C 44.289062 -8.519531 44.21875 -8.597656 44.21875 -8.703125 C 44.125 -8.023438 43.976562 -7.347656 43.78125 -6.671875 C 43.59375 -5.992188 43.398438 -5.269531 43.203125 -4.5 C 42.816406 -3.53125 42.359375 -2.65625 41.828125 -1.875 C 41.296875 -1.101562 40.453125 -0.578125 39.296875 -0.296875 C 38.421875 -0.0976562 37.789062 -0.144531 37.40625 -0.4375 C 36.53125 -0.4375 35.851562 -0.628906 35.375 -1.015625 C 34.789062 -0.628906 34.359375 -0.773438 34.078125 -1.453125 C 33.398438 -2.515625 32.890625 -3.578125 32.546875 -4.640625 C 32.210938 -5.703125 31.898438 -6.8125 31.609375 -7.96875 L 25.375 -30.15625 C 24.695312 -32.570312 24.039062 -34.988281 23.40625 -37.40625 C 22.78125 -39.820312 22.179688 -42.238281 21.609375 -44.65625 C 21.410156 -45.238281 21.210938 -45.816406 21.015625 -46.390625 C 20.828125 -46.972656 20.632812 -47.601562 20.4375 -48.28125 C 20.726562 -42.1875 20.992188 -36 21.234375 -29.71875 C 21.484375 -23.4375 21.65625 -17.25 21.75 -11.15625 C 21.84375 -9.03125 21.769531 -6.832031 21.53125 -4.5625 C 21.289062 -2.289062 20.007812 -0.625 17.6875 0.4375 C 16.625 0.914062 15.800781 0.816406 15.21875 0.140625 C 15.03125 -0.046875 14.882812 -0.238281 14.78125 -0.4375 C 12.757812 0.238281 11.070312 -0.0976562 9.71875 -1.453125 C 8.457031 -2.804688 7.632812 -4.445312 7.25 -6.375 C 6.863281 -8.3125 6.570312 -10.148438 6.375 -11.890625 C 5.800781 -16.140625 5.367188 -20.316406 5.078125 -24.421875 C 4.785156 -28.535156 4.59375 -32.671875 4.5 -36.828125 C 4.207031 -45.429688 4.0625 -54.035156 4.0625 -62.640625 C 3.96875 -66.796875 3.894531 -71 3.84375 -75.25 C 3.789062 -79.5 4.148438 -83.703125 4.921875 -87.859375 C 5.023438 -88.242188 5.316406 -88.4375 5.796875 -88.4375 C 6.285156 -88.4375 6.578125 -88.242188 6.671875 -87.859375 C 7.148438 -84.960938 7.4375 -81.894531 7.53125 -78.65625 C 7.632812 -75.414062 7.734375 -72.25 7.828125 -69.15625 C 8.023438 -69.15625 8.171875 -68.625 8.265625 -67.5625 C 8.359375 -66.5 8.453125 -65.96875 8.546875 -65.96875 L 8.546875 -69.296875 C 8.546875 -71.035156 8.519531 -72.75 8.46875 -74.4375 C 8.425781 -76.132812 8.40625 -77.851562 8.40625 -79.59375 C 8.3125 -81.039062 8.285156 -82.535156 8.328125 -84.078125 C 8.378906 -85.628906 8.742188 -87.082031 9.421875 -88.4375 C 9.421875 -90.082031 10.242188 -91.390625 11.890625 -92.359375 C 14.210938 -93.804688 16.628906 -94.144531 19.140625 -93.375 C 22.035156 -92.789062 24.015625 -91.097656 25.078125 -88.296875 C 25.953125 -87.234375 26.484375 -85.925781 26.671875 -84.375 C 26.867188 -82.632812 27.113281 -80.867188 27.40625 -79.078125 C 27.695312 -77.296875 27.984375 -75.488281 28.265625 -73.65625 C 29.523438 -66.207031 30.925781 -58.421875 32.46875 -50.296875 C 34.019531 -42.179688 35.617188 -34.453125 37.265625 -27.109375 C 38.222656 -31.171875 39.140625 -35.226562 40.015625 -39.28125 C 40.890625 -43.34375 41.804688 -47.40625 42.765625 -51.46875 C 44.117188 -57.75 45.519531 -64.003906 46.96875 -70.234375 C 48.425781 -76.472656 49.585938 -82.734375 50.453125 -89.015625 C 50.648438 -89.796875 51.085938 -90.5 51.765625 -91.125 C 52.441406 -91.75 53.164062 -92.109375 53.9375 -92.203125 C 56.351562 -92.878906 58.476562 -92.6875 60.3125 -91.625 C 61.375 -92.40625 62.582031 -92.796875 63.9375 -92.796875 C 65.289062 -92.796875 66.398438 -92.3125 67.265625 -91.34375 C 69.492188 -89.113281 71.285156 -86.597656 72.640625 -83.796875 C 73.992188 -80.992188 75.007812 -78.097656 75.6875 -75.109375 C 76.457031 -71.816406 77.15625 -68.550781 77.78125 -65.3125 C 78.414062 -62.070312 79.019531 -58.8125 79.59375 -55.53125 C 79.789062 -54.269531 80.007812 -53.007812 80.25 -51.75 C 80.488281 -50.5 80.65625 -49.242188 80.75 -47.984375 C 81.039062 -46.921875 81.304688 -45.859375 81.546875 -44.796875 C 81.796875 -43.734375 82.015625 -42.671875 82.203125 -41.609375 C 82.691406 -39.191406 83.148438 -36.820312 83.578125 -34.5 C 84.015625 -32.1875 84.472656 -29.820312 84.953125 -27.40625 C 85.441406 -25.28125 85.898438 -23.175781 86.328125 -21.09375 C 86.765625 -19.019531 87.082031 -16.914062 87.28125 -14.78125 Z M 27.109375 -54.21875 C 27.398438 -53.539062 27.640625 -52.9375 27.828125 -52.40625 C 28.023438 -51.875 28.316406 -51.367188 28.703125 -50.890625 C 28.023438 -54.566406 27.25 -58.796875 26.375 -63.578125 C 25.507812 -68.359375 24.738281 -72.585938 24.0625 -76.265625 C 23.96875 -77.328125 23.820312 -78.410156 23.625 -79.515625 C 23.4375 -80.628906 23.195312 -81.769531 22.90625 -82.9375 C 22.320312 -82.539062 21.644531 -82.25 20.875 -82.0625 C 20.875 -81.863281 20.828125 -81.671875 20.734375 -81.484375 C 21.796875 -77.035156 22.832031 -72.632812 23.84375 -68.28125 C 24.863281 -63.9375 25.859375 -59.492188 26.828125 -54.953125 C 27.015625 -54.753906 27.109375 -54.507812 27.109375 -54.21875 Z M 49.15625 -32.1875 C 50.5 -37.695312 51.941406 -43.207031 53.484375 -48.71875 C 55.035156 -54.226562 56.734375 -59.6875 58.578125 -65.09375 C 58.472656 -65.582031 58.375 -66.066406 58.28125 -66.546875 C 58.1875 -67.023438 58.039062 -67.507812 57.84375 -68 C 56.300781 -63.257812 54.851562 -58.445312 53.5 -53.5625 C 52.144531 -48.6875 50.890625 -43.785156 49.734375 -38.859375 C 49.628906 -37.796875 49.457031 -36.707031 49.21875 -35.59375 C 48.976562 -34.476562 48.757812 -33.390625 48.5625 -32.328125 C 48.664062 -32.234375 48.8125 -32.1875 49 -32.1875 Z M 49.15625 -32.1875 "/></g></g></g><g fill="#2b2b2b" fill-opacity="1"><g transform="translate(235.109707, 214.297153)"><g><path d="M 53.0625 -4.34375 C 52.476562 -4.539062 51.820312 -5.554688 51.09375 -7.390625 C 50.375 -9.234375 49.601562 -11.503906 48.78125 -14.203125 C 47.96875 -16.910156 47.195312 -19.710938 46.46875 -22.609375 C 45.738281 -25.515625 45.082031 -28.125 44.5 -30.4375 C 43.925781 -32.757812 43.539062 -34.453125 43.34375 -35.515625 L 32.046875 -35.375 C 30.984375 -31.03125 30.0625 -26.707031 29.28125 -22.40625 C 28.507812 -18.101562 27.929688 -13.726562 27.546875 -9.28125 C 27.546875 -8.40625 27.132812 -7.96875 26.3125 -7.96875 C 25.488281 -7.96875 25.128906 -8.40625 25.234375 -9.28125 C 25.617188 -13.625 26.171875 -17.992188 26.890625 -22.390625 C 27.617188 -26.796875 28.660156 -31.125 30.015625 -35.375 L 28.703125 -35.375 C 28.222656 -33.632812 27.738281 -31.53125 27.25 -29.0625 C 26.769531 -26.601562 26.3125 -24.1875 25.875 -21.8125 C 25.445312 -19.445312 25.085938 -17.46875 24.796875 -15.875 C 24.503906 -14.28125 24.359375 -13.484375 24.359375 -13.484375 L 23.484375 -6.953125 C 23.191406 -3.671875 22.078125 -1.304688 20.140625 0.140625 C 18.210938 1.585938 16.085938 2.164062 13.765625 1.875 C 11.453125 1.59375 9.5 0.488281 7.90625 -1.4375 C 6.3125 -3.375 5.753906 -6.035156 6.234375 -9.421875 C 6.816406 -13.671875 7.492188 -17.921875 8.265625 -22.171875 C 9.035156 -26.429688 9.953125 -30.640625 11.015625 -34.796875 C 10.335938 -34.703125 9.660156 -34.628906 8.984375 -34.578125 C 8.304688 -34.523438 7.679688 -34.5 7.109375 -34.5 C 7.296875 -34.988281 7.34375 -35.425781 7.25 -35.8125 C 4.925781 -36.394531 3.234375 -37.648438 2.171875 -39.578125 C 1.109375 -41.515625 0.816406 -43.664062 1.296875 -46.03125 C 1.785156 -48.394531 3.140625 -50.566406 5.359375 -52.546875 C 7.585938 -54.535156 10.875 -55.867188 15.21875 -56.546875 C 16.28125 -61.378906 17.441406 -66.140625 18.703125 -70.828125 C 19.960938 -75.515625 21.507812 -80.082031 23.34375 -84.53125 C 24.207031 -86.457031 25.171875 -88.554688 26.234375 -90.828125 C 27.304688 -93.097656 28.640625 -95.078125 30.234375 -96.765625 C 31.828125 -98.460938 33.832031 -99.3125 36.25 -99.3125 C 37.5 -99.40625 38.753906 -99.066406 40.015625 -98.296875 C 41.273438 -97.523438 42.191406 -96.5625 42.765625 -95.40625 C 44.890625 -95.300781 46.65625 -94.546875 48.0625 -93.140625 C 49.46875 -91.742188 50.265625 -89.890625 50.453125 -87.578125 C 50.648438 -84.671875 50.890625 -81.742188 51.171875 -78.796875 C 51.460938 -75.847656 51.753906 -72.972656 52.046875 -70.171875 C 52.140625 -70.078125 52.238281 -70.03125 52.34375 -70.03125 C 52.4375 -72.539062 52.554688 -75.023438 52.703125 -77.484375 C 52.847656 -79.953125 53.066406 -82.394531 53.359375 -84.8125 C 53.359375 -85.195312 53.429688 -84.328125 53.578125 -82.203125 C 53.722656 -80.078125 53.890625 -77.347656 54.078125 -74.015625 C 54.273438 -70.679688 54.46875 -67.347656 54.65625 -64.015625 C 54.851562 -60.679688 55.097656 -57.898438 55.390625 -55.671875 C 58.191406 -55.378906 60.363281 -54.4375 61.90625 -52.84375 C 63.457031 -51.25 64.425781 -49.410156 64.8125 -47.328125 C 65.195312 -45.253906 65 -43.203125 64.21875 -41.171875 C 63.445312 -39.140625 62.050781 -37.5 60.03125 -36.25 C 60.988281 -31.988281 62 -27.175781 63.0625 -21.8125 C 64.125 -16.457031 64.945312 -11.601562 65.53125 -7.25 C 65.914062 -3.957031 65.648438 -1.46875 64.734375 0.21875 C 63.816406 1.90625 62.609375 2.84375 61.109375 3.03125 C 59.609375 3.226562 58.109375 2.695312 56.609375 1.4375 C 55.117188 0.1875 53.9375 -1.738281 53.0625 -4.34375 Z M 31.609375 -54.21875 C 32.671875 -54.414062 34.046875 -54.535156 35.734375 -54.578125 C 37.429688 -54.628906 38.757812 -54.703125 39.71875 -54.796875 C 39.53125 -56.054688 39.3125 -57.84375 39.0625 -60.15625 C 38.820312 -62.476562 38.535156 -64.96875 38.203125 -67.625 C 37.867188 -70.289062 37.457031 -72.734375 36.96875 -74.953125 C 35.8125 -70.898438 34.796875 -67.273438 33.921875 -64.078125 C 33.054688 -60.890625 32.285156 -57.601562 31.609375 -54.21875 Z M 31.609375 -54.21875 "/></g></g></g><g fill="#2b2b2b" fill-opacity="1"><g transform="translate(290.055368, 214.297153)"><g><path d="M 82.640625 -55.234375 L 82.203125 -52.1875 C 82.109375 -50.84375 81.476562 -49.660156 80.3125 -48.640625 C 79.15625 -47.628906 78 -47.171875 76.84375 -47.265625 C 73.457031 -47.460938 70.046875 -47.703125 66.609375 -47.984375 C 63.179688 -48.273438 59.78125 -48.566406 56.40625 -48.859375 C 60.363281 -42.960938 63.84375 -36.96875 66.84375 -30.875 C 68.769531 -26.71875 70.695312 -22.390625 72.625 -17.890625 C 74.5625 -13.398438 75.242188 -8.789062 74.671875 -4.0625 C 74.472656 -2.507812 73.695312 -1.515625 72.34375 -1.078125 C 70.988281 -0.648438 69.6875 -0.675781 68.4375 -1.15625 C 67.757812 -1.0625 67.101562 -1.035156 66.46875 -1.078125 C 65.84375 -1.128906 65.191406 -1.300781 64.515625 -1.59375 C 64.328125 -1.59375 64.234375 -1.640625 64.234375 -1.734375 C 63.648438 -1.160156 63.019531 -1.019531 62.34375 -1.3125 C 61.082031 -4.6875 59.726562 -8.085938 58.28125 -11.515625 C 56.832031 -14.953125 55.382812 -18.316406 53.9375 -21.609375 C 53.445312 -22.859375 52.71875 -24.617188 51.75 -26.890625 C 50.789062 -29.160156 49.78125 -31.53125 48.71875 -34 C 47.65625 -36.46875 46.640625 -38.570312 45.671875 -40.3125 C 44.898438 -42.050781 44.125 -43.546875 43.34375 -44.796875 L 43.34375 -44.9375 C 42.476562 -46.195312 41.660156 -47.550781 40.890625 -49 C 39.046875 -49.101562 37.15625 -49.203125 35.21875 -49.296875 C 33.289062 -49.390625 31.363281 -49.484375 29.4375 -49.578125 C 29.820312 -46.296875 30.15625 -43.007812 30.4375 -39.71875 C 30.726562 -36.4375 30.925781 -33.101562 31.03125 -29.71875 C 31.21875 -26.144531 31.429688 -22.546875 31.671875 -18.921875 C 31.921875 -15.296875 31.945312 -11.695312 31.75 -8.125 C 31.84375 -7.738281 31.890625 -7.328125 31.890625 -6.890625 C 31.890625 -6.453125 31.890625 -6.039062 31.890625 -5.65625 C 30.929688 -3.820312 29.820312 -2.375 28.5625 -1.3125 C 27.59375 -0.53125 26.476562 -0.140625 25.21875 -0.140625 C 23.96875 -0.140625 22.90625 -0.625 22.03125 -1.59375 C 21.550781 -2.363281 21.265625 -3.140625 21.171875 -3.921875 C 20.585938 -3.816406 20.003906 -3.984375 19.421875 -4.421875 C 18.847656 -4.859375 18.5625 -5.460938 18.5625 -6.234375 C 18.175781 -7.773438 18.003906 -9.390625 18.046875 -11.078125 C 18.097656 -12.773438 18.023438 -14.398438 17.828125 -15.953125 L 16.53125 -25.515625 C 15.945312 -28.898438 15.363281 -32.304688 14.78125 -35.734375 C 14.207031 -39.171875 13.628906 -42.578125 13.046875 -45.953125 L 12.171875 -51.03125 C 12.078125 -51.03125 11.957031 -51.03125 11.8125 -51.03125 C 11.664062 -51.03125 11.5 -51.03125 11.3125 -51.03125 C 11.3125 -51.613281 11.019531 -51.953125 10.4375 -52.046875 C 9.664062 -52.242188 8.867188 -52.484375 8.046875 -52.765625 C 7.222656 -53.054688 6.425781 -53.347656 5.65625 -53.640625 L 8.984375 -54.078125 C 7.535156 -54.660156 6.085938 -55.4375 4.640625 -56.40625 C 3.285156 -57.269531 2.535156 -58.5 2.390625 -60.09375 C 2.242188 -61.6875 2.554688 -63.113281 3.328125 -64.375 C 4.109375 -65.632812 5.222656 -66.265625 6.671875 -66.265625 C 7.148438 -66.359375 7.609375 -66.40625 8.046875 -66.40625 C 8.484375 -66.40625 8.894531 -66.40625 9.28125 -66.40625 C 8.789062 -68.914062 8.28125 -71.425781 7.75 -73.9375 C 7.21875 -76.457031 6.664062 -78.925781 6.09375 -81.34375 C 7.34375 -82.300781 8.359375 -83.363281 9.140625 -84.53125 C 7.785156 -85.6875 6.789062 -87.179688 6.15625 -89.015625 C 5.53125 -90.859375 5.601562 -92.597656 6.375 -94.234375 C 7.34375 -96.078125 8.789062 -97.191406 10.71875 -97.578125 C 12.65625 -97.960938 14.734375 -98.007812 16.953125 -97.71875 C 19.179688 -97.425781 21.070312 -97.132812 22.625 -96.84375 C 23.101562 -96.84375 23.535156 -96.648438 23.921875 -96.265625 C 24.398438 -96.078125 24.90625 -95.882812 25.4375 -95.6875 C 25.976562 -95.5 26.488281 -95.304688 26.96875 -95.109375 C 27.0625 -95.109375 27.128906 -95.082031 27.171875 -95.03125 C 27.222656 -94.988281 27.300781 -94.96875 27.40625 -94.96875 C 35.425781 -92.445312 43.082031 -88.941406 50.375 -84.453125 C 57.675781 -79.960938 64.851562 -75.300781 71.90625 -70.46875 C 72.875 -69.6875 73.550781 -68.617188 73.9375 -67.265625 C 75 -66.597656 76.015625 -65.875 76.984375 -65.09375 C 77.953125 -64.320312 78.921875 -63.550781 79.890625 -62.78125 C 82.203125 -61.039062 83.117188 -58.523438 82.640625 -55.234375 Z M 23.78125 -77.421875 C 23.875 -77.328125 23.921875 -77.179688 23.921875 -76.984375 C 23.921875 -76.796875 23.96875 -76.601562 24.0625 -76.40625 C 24.445312 -76.789062 24.90625 -76.957031 25.4375 -76.90625 C 25.976562 -76.863281 26.296875 -76.503906 26.390625 -75.828125 C 26.773438 -74.273438 27.132812 -72.75 27.46875 -71.25 C 27.8125 -69.757812 28.128906 -68.238281 28.421875 -66.6875 C 28.804688 -66.59375 29.191406 -66.546875 29.578125 -66.546875 C 29.960938 -66.546875 30.347656 -66.5 30.734375 -66.40625 C 30.929688 -67.269531 31.367188 -67.992188 32.046875 -68.578125 C 33.492188 -69.546875 34.960938 -69.835938 36.453125 -69.453125 C 37.953125 -69.066406 39.40625 -68.410156 40.8125 -67.484375 C 42.21875 -66.566406 43.453125 -65.625 44.515625 -64.65625 L 58.578125 -62.921875 C 52.972656 -66.785156 47.269531 -70.191406 41.46875 -73.140625 C 35.664062 -76.085938 29.625 -78.285156 23.34375 -79.734375 Z M 34.078125 -12.171875 C 33.785156 -18.171875 33.46875 -24.191406 33.125 -30.234375 C 32.789062 -36.273438 32.1875 -42.242188 31.3125 -48.140625 L 32.46875 -48.140625 C 33.25 -43.984375 33.832031 -39.726562 34.21875 -35.375 C 34.601562 -31.03125 34.988281 -26.679688 35.375 -22.328125 C 35.570312 -19.710938 35.472656 -17.800781 35.078125 -16.59375 C 34.691406 -15.382812 34.359375 -13.910156 34.078125 -12.171875 Z M 34.078125 -12.171875 "/></g></g></g><g fill="#2b2b2b" fill-opacity="1"><g transform="translate(125.118345, 247.100828)"><g><path d="M 0 0 L 5.390625 -10.796875 L 10.015625 -10.796875 L 15.265625 0 L 11.140625 0 L 10.3125 -1.875 L 4.953125 -1.875 L 4.125 0 Z M 5.703125 -4.09375 L 9.5625 -4.09375 L 7.65625 -8.375 L 7.625 -8.375 Z M 5.703125 -4.09375 "/></g></g></g><g fill="#2b2b2b" fill-opacity="1"><g transform="translate(140.169908, 247.100828)"><g><path d="M 12.578125 0.296875 C 12.023438 0.296875 11.550781 0.203125 11.15625 0.015625 C 10.769531 -0.160156 10.441406 -0.390625 10.171875 -0.671875 C 9.898438 -0.960938 9.660156 -1.257812 9.453125 -1.5625 L 8.828125 -2.609375 C 8.597656 -2.929688 8.320312 -3.171875 8 -3.328125 C 7.6875 -3.492188 7.34375 -3.578125 6.96875 -3.578125 L 4.734375 -3.578125 L 4.734375 0 L 0.75 0 L 0.75 -10.796875 L 9.859375 -10.796875 C 11.304688 -10.796875 12.429688 -10.492188 13.234375 -9.890625 C 14.035156 -9.296875 14.4375 -8.457031 14.4375 -7.375 C 14.4375 -6.5625 14.15625 -5.878906 13.59375 -5.328125 C 13.039062 -4.785156 12.273438 -4.421875 11.296875 -4.234375 L 11.296875 -4.21875 C 11.472656 -4.15625 11.640625 -4.050781 11.796875 -3.90625 C 11.960938 -3.757812 12.113281 -3.59375 12.25 -3.40625 L 12.984375 -2.296875 C 13.085938 -2.140625 13.207031 -2.019531 13.34375 -1.9375 C 13.488281 -1.851562 13.675781 -1.8125 13.90625 -1.8125 C 14.03125 -1.8125 14.171875 -1.835938 14.328125 -1.890625 C 14.484375 -1.953125 14.609375 -2.035156 14.703125 -2.140625 L 15.328125 -0.546875 C 15.140625 -0.378906 14.890625 -0.226562 14.578125 -0.09375 C 14.265625 0.03125 13.9375 0.125 13.59375 0.1875 C 13.25 0.257812 12.910156 0.296875 12.578125 0.296875 Z M 4.734375 -5.796875 L 8.640625 -5.796875 C 9.203125 -5.796875 9.640625 -5.910156 9.953125 -6.140625 C 10.273438 -6.378906 10.4375 -6.707031 10.4375 -7.125 C 10.4375 -7.539062 10.28125 -7.863281 9.96875 -8.09375 C 9.65625 -8.332031 9.21875 -8.453125 8.65625 -8.453125 L 4.734375 -8.453125 Z M 4.734375 -5.796875 "/></g></g></g><g fill="#2b2b2b" fill-opacity="1"><g transform="translate(155.281732, 247.100828)"><g><path d="M 4.328125 0 L 4.328125 -8 L 0.140625 -8 L 0.140625 -10.796875 L 12.5 -10.796875 L 12.5 -8 L 8.3125 -8 L 8.3125 0 Z M 4.328125 0 "/></g></g></g><g fill="#2b2b2b" fill-opacity="1"><g transform="translate(167.696614, 247.100828)"><g/></g></g><g fill="#2b2b2b" fill-opacity="1"><g transform="translate(171.011197, 247.100828)"><g><path d="M 0.75 0 L 0.75 -10.796875 L 8.4375 -10.796875 C 10.539062 -10.796875 12.15625 -10.328125 13.28125 -9.390625 C 14.414062 -8.460938 14.984375 -7.128906 14.984375 -5.390625 C 14.984375 -3.660156 14.414062 -2.328125 13.28125 -1.390625 C 12.15625 -0.460938 10.539062 0 8.4375 0 Z M 4.609375 -2.6875 L 7.875 -2.6875 C 8.914062 -2.6875 9.710938 -2.921875 10.265625 -3.390625 C 10.828125 -3.859375 11.109375 -4.523438 11.109375 -5.390625 C 11.109375 -6.265625 10.828125 -6.9375 10.265625 -7.40625 C 9.710938 -7.882812 8.914062 -8.125 7.875 -8.125 L 4.609375 -8.125 Z M 4.609375 -2.6875 "/></g></g></g><g fill="#2b2b2b" fill-opacity="1"><g transform="translate(186.258623, 247.100828)"><g><path d="M 0.75 0 L 0.75 -10.796875 L 12.171875 -10.796875 L 12.171875 -8.359375 L 4.609375 -8.359375 L 4.609375 -6.546875 L 11.5625 -6.546875 L 11.5625 -4.453125 L 4.609375 -4.453125 L 4.609375 -2.4375 L 12.3125 -2.4375 L 12.3125 0 Z M 0.75 0 "/></g></g></g><g fill="#2b2b2b" fill-opacity="1"><g transform="translate(198.658438, 247.100828)"><g><path d="M 7.109375 0.3125 C 6.242188 0.3125 5.378906 0.234375 4.515625 0.078125 C 3.660156 -0.078125 2.863281 -0.296875 2.125 -0.578125 C 1.394531 -0.859375 0.785156 -1.175781 0.296875 -1.53125 L 1.609375 -3.90625 C 2.046875 -3.570312 2.570312 -3.273438 3.1875 -3.015625 C 3.8125 -2.765625 4.476562 -2.5625 5.1875 -2.40625 C 5.90625 -2.257812 6.613281 -2.1875 7.3125 -2.1875 C 8.082031 -2.1875 8.691406 -2.269531 9.140625 -2.4375 C 9.585938 -2.601562 9.8125 -2.832031 9.8125 -3.125 C 9.8125 -3.351562 9.628906 -3.539062 9.265625 -3.6875 C 8.898438 -3.84375 8.3125 -3.960938 7.5 -4.046875 L 5.5 -4.265625 C 3.78125 -4.441406 2.53125 -4.785156 1.75 -5.296875 C 0.976562 -5.804688 0.59375 -6.539062 0.59375 -7.5 C 0.601562 -8.269531 0.878906 -8.925781 1.421875 -9.46875 C 1.960938 -10.007812 2.722656 -10.421875 3.703125 -10.703125 C 4.679688 -10.984375 5.816406 -11.125 7.109375 -11.125 C 8.242188 -11.125 9.316406 -11.003906 10.328125 -10.765625 C 11.335938 -10.523438 12.179688 -10.1875 12.859375 -9.75 L 11.78125 -7.484375 C 11.1875 -7.867188 10.472656 -8.175781 9.640625 -8.40625 C 8.816406 -8.632812 7.984375 -8.742188 7.140625 -8.734375 C 6.367188 -8.722656 5.734375 -8.632812 5.234375 -8.46875 C 4.734375 -8.300781 4.476562 -8.070312 4.46875 -7.78125 C 4.457031 -7.582031 4.609375 -7.421875 4.921875 -7.296875 C 5.234375 -7.171875 5.742188 -7.070312 6.453125 -7 L 8.453125 -6.765625 C 10.285156 -6.585938 11.613281 -6.238281 12.4375 -5.71875 C 13.257812 -5.195312 13.671875 -4.441406 13.671875 -3.453125 C 13.679688 -2.710938 13.414062 -2.054688 12.875 -1.484375 C 12.332031 -0.921875 11.566406 -0.476562 10.578125 -0.15625 C 9.597656 0.15625 8.441406 0.3125 7.109375 0.3125 Z M 7.109375 0.3125 "/></g></g></g><g fill="#2b2b2b" fill-opacity="1"><g transform="translate(212.414261, 247.100828)"><g><path d="M 0.75 0 L 0.75 -10.796875 L 4.71875 -10.796875 L 4.71875 0 Z M 0.75 0 "/></g></g></g><g fill="#2b2b2b" fill-opacity="1"><g transform="translate(217.672447, 247.100828)"><g><path d="M 7.46875 0.25 C 6.082031 0.25 4.863281 0.0234375 3.8125 -0.421875 C 2.757812 -0.867188 1.941406 -1.5 1.359375 -2.3125 C 0.773438 -3.132812 0.484375 -4.085938 0.484375 -5.171875 C 0.484375 -6.054688 0.664062 -6.859375 1.03125 -7.578125 C 1.394531 -8.296875 1.914062 -8.914062 2.59375 -9.4375 C 3.269531 -9.957031 4.078125 -10.359375 5.015625 -10.640625 C 5.953125 -10.921875 6.992188 -11.0625 8.140625 -11.0625 C 9.304688 -11.0625 10.359375 -10.910156 11.296875 -10.609375 C 12.242188 -10.316406 13.019531 -9.90625 13.625 -9.375 C 14.238281 -8.84375 14.625 -8.222656 14.78125 -7.515625 L 11.046875 -6.875 C 10.910156 -7.320312 10.570312 -7.6875 10.03125 -7.96875 C 9.488281 -8.25 8.859375 -8.390625 8.140625 -8.390625 C 7.421875 -8.390625 6.78125 -8.257812 6.21875 -8 C 5.664062 -7.738281 5.238281 -7.375 4.9375 -6.90625 C 4.632812 -6.445312 4.484375 -5.90625 4.484375 -5.28125 C 4.484375 -4.695312 4.65625 -4.179688 5 -3.734375 C 5.34375 -3.285156 5.828125 -2.9375 6.453125 -2.6875 C 7.085938 -2.4375 7.816406 -2.3125 8.640625 -2.3125 C 9.296875 -2.3125 9.882812 -2.390625 10.40625 -2.546875 C 10.925781 -2.710938 11.347656 -2.941406 11.671875 -3.234375 C 11.992188 -3.535156 12.179688 -3.875 12.234375 -4.25 L 6.5 -4.25 L 6.5 -6.234375 L 16.0625 -6.234375 L 16.0625 0 L 12.921875 0 L 12.765625 -1.8125 L 12.75 -1.8125 C 12.425781 -1.394531 11.988281 -1.03125 11.4375 -0.71875 C 10.894531 -0.40625 10.285156 -0.164062 9.609375 0 C 8.929688 0.164062 8.21875 0.25 7.46875 0.25 Z M 7.46875 0.25 "/></g></g></g><g fill="#2b2b2b" fill-opacity="1"><g transform="translate(234.03481, 247.100828)"><g><path d="M 0.75 0 L 0.75 -10.796875 L 5.53125 -10.796875 L 11.328125 -3.78125 L 11.34375 -3.78125 L 11.34375 -10.796875 L 15.09375 -10.796875 L 15.09375 0 L 10.3125 0 L 4.515625 -7.109375 L 4.515625 0 Z M 0.75 0 "/></g></g></g><g clip-path="url(#150096d740)"><g clip-path="url(#ab99c90a88)"><path stroke-linecap="butt" transform="matrix(1.164929, 0, 0, 1.164929, 161.61014, 260.745012)" fill="none" stroke-linejoin="miter" d="M 12.993026 0.000928874 L 31.44238 0.000928874 C 38.618246 0.000928874 44.436063 5.815392 44.436063 12.991259 C 44.436063 20.167125 38.618246 25.984942 31.44238 25.984942 L 12.993026 25.984942 C 5.81716 25.984942 -0.000656939 20.167125 -0.000656939 12.991259 C -0.000656939 5.815392 5.81716 0.000928874 12.993026 0.000928874 Z M 12.993026 0.000928874 " stroke="#2b2b2b" stroke-width="1.931448" stroke-opacity="1" stroke-miterlimit="4"/></g></g><g fill="#2b2b2b" fill-opacity="1"><g transform="translate(178.651632, 277.054043)"><g><path d="M 0.390625 0 L 0.390625 -0.765625 C 0.390625 -1.015625 0.4375 -1.234375 0.53125 -1.421875 C 0.632812 -1.609375 0.765625 -1.769531 0.921875 -1.90625 C 1.078125 -2.050781 1.25 -2.175781 1.4375 -2.28125 C 1.625 -2.382812 1.8125 -2.484375 2 -2.578125 C 2.1875 -2.671875 2.359375 -2.765625 2.515625 -2.859375 C 2.671875 -2.953125 2.796875 -3.054688 2.890625 -3.171875 C 2.984375 -3.285156 3.03125 -3.425781 3.03125 -3.59375 C 3.03125 -3.789062 2.957031 -3.953125 2.8125 -4.078125 C 2.675781 -4.210938 2.488281 -4.28125 2.25 -4.28125 C 2 -4.28125 1.785156 -4.203125 1.609375 -4.046875 C 1.429688 -3.898438 1.320312 -3.679688 1.28125 -3.390625 L 0.296875 -3.390625 C 0.304688 -3.710938 0.382812 -4.003906 0.53125 -4.265625 C 0.675781 -4.523438 0.890625 -4.734375 1.171875 -4.890625 C 1.460938 -5.046875 1.832031 -5.125 2.28125 -5.125 C 2.65625 -5.125 2.976562 -5.054688 3.25 -4.921875 C 3.519531 -4.796875 3.726562 -4.617188 3.875 -4.390625 C 4.03125 -4.160156 4.109375 -3.894531 4.109375 -3.59375 C 4.109375 -3.34375 4.0625 -3.125 3.96875 -2.9375 C 3.875 -2.75 3.75 -2.585938 3.59375 -2.453125 C 3.445312 -2.328125 3.28125 -2.210938 3.09375 -2.109375 C 2.90625 -2.015625 2.71875 -1.925781 2.53125 -1.84375 C 2.351562 -1.757812 2.1875 -1.675781 2.03125 -1.59375 C 1.882812 -1.507812 1.765625 -1.410156 1.671875 -1.296875 C 1.578125 -1.191406 1.53125 -1.0625 1.53125 -0.90625 L 1.53125 -0.859375 L 4.109375 -0.859375 L 4.109375 0 Z M 0.390625 0 "/></g></g></g><g fill="#2b2b2b" fill-opacity="1"><g transform="translate(182.992044, 277.054043)"><g><path d="M 2.25 -5.125 C 2.851562 -5.125 3.328125 -4.898438 3.671875 -4.453125 C 4.023438 -4.003906 4.203125 -3.359375 4.203125 -2.515625 C 4.203125 -1.679688 4.03125 -1.039062 3.6875 -0.59375 C 3.34375 -0.144531 2.863281 0.078125 2.25 0.078125 C 1.644531 0.078125 1.171875 -0.140625 0.828125 -0.578125 C 0.484375 -1.023438 0.3125 -1.671875 0.3125 -2.515625 C 0.3125 -3.066406 0.390625 -3.535156 0.546875 -3.921875 C 0.703125 -4.316406 0.925781 -4.613281 1.21875 -4.8125 C 1.507812 -5.019531 1.851562 -5.125 2.25 -5.125 Z M 2.25 -0.75 C 2.550781 -0.75 2.769531 -0.882812 2.90625 -1.15625 C 3.050781 -1.425781 3.125 -1.878906 3.125 -2.515625 C 3.125 -3.160156 3.050781 -3.617188 2.90625 -3.890625 C 2.769531 -4.171875 2.550781 -4.3125 2.25 -4.3125 C 1.957031 -4.3125 1.738281 -4.171875 1.59375 -3.890625 C 1.445312 -3.609375 1.375 -3.148438 1.375 -2.515625 C 1.375 -1.878906 1.441406 -1.425781 1.578125 -1.15625 C 1.722656 -0.882812 1.945312 -0.75 2.25 -0.75 Z M 2.25 -0.75 "/></g></g></g><g fill="#2b2b2b" fill-opacity="1"><g transform="translate(187.398847, 277.054043)"><g><path d="M 0.390625 0 L 0.390625 -0.765625 C 0.390625 -1.015625 0.4375 -1.234375 0.53125 -1.421875 C 0.632812 -1.609375 0.765625 -1.769531 0.921875 -1.90625 C 1.078125 -2.050781 1.25 -2.175781 1.4375 -2.28125 C 1.625 -2.382812 1.8125 -2.484375 2 -2.578125 C 2.1875 -2.671875 2.359375 -2.765625 2.515625 -2.859375 C 2.671875 -2.953125 2.796875 -3.054688 2.890625 -3.171875 C 2.984375 -3.285156 3.03125 -3.425781 3.03125 -3.59375 C 3.03125 -3.789062 2.957031 -3.953125 2.8125 -4.078125 C 2.675781 -4.210938 2.488281 -4.28125 2.25 -4.28125 C 2 -4.28125 1.785156 -4.203125 1.609375 -4.046875 C 1.429688 -3.898438 1.320312 -3.679688 1.28125 -3.390625 L 0.296875 -3.390625 C 0.304688 -3.710938 0.382812 -4.003906 0.53125 -4.265625 C 0.675781 -4.523438 0.890625 -4.734375 1.171875 -4.890625 C 1.460938 -5.046875 1.832031 -5.125 2.28125 -5.125 C 2.65625 -5.125 2.976562 -5.054688 3.25 -4.921875 C 3.519531 -4.796875 3.726562 -4.617188 3.875 -4.390625 C 4.03125 -4.160156 4.109375 -3.894531 4.109375 -3.59375 C 4.109375 -3.34375 4.0625 -3.125 3.96875 -2.9375 C 3.875 -2.75 3.75 -2.585938 3.59375 -2.453125 C 3.445312 -2.328125 3.28125 -2.210938 3.09375 -2.109375 C 2.90625 -2.015625 2.71875 -1.925781 2.53125 -1.84375 C 2.351562 -1.757812 2.1875 -1.675781 2.03125 -1.59375 C 1.882812 -1.507812 1.765625 -1.410156 1.671875 -1.296875 C 1.578125 -1.191406 1.53125 -1.0625 1.53125 -0.90625 L 1.53125 -0.859375 L 4.109375 -0.859375 L 4.109375 0 Z M 0.390625 0 "/></g></g></g><g fill="#2b2b2b" fill-opacity="1"><g transform="translate(191.739259, 277.054043)"><g><path d="M 2.609375 -5.046875 L 3.609375 -5.046875 L 3.609375 -1.96875 L 4.375 -1.96875 L 4.375 -1.125 L 3.609375 -1.125 L 3.609375 0 L 2.625 0 L 2.625 -1.125 L 0.296875 -1.125 L 0.296875 -1.953125 Z M 1.25 -1.96875 L 2.625 -1.96875 L 2.625 -3.828125 Z M 1.25 -1.96875 "/></g></g></g></svg>